  0
SECTION
  2
HEADER
  9
$ACADVER
  1
AC1018
  9
$ACADMAINTVER
 70
     0
  9
$DWGCODEPAGE
  3
ANSI_936
  9
$INSBASE
 10
0.0
 20
0.0
 30
0.0
  9
$EXTMIN
 10
0.0
 20
0.0
 30
0.0
  9
$EXTMAX
 10
279.4
 20
215.9
 30
0.0
  9
$LIMMIN
 10
0.0
 20
0.0
  9
$LIMMAX
 10
279.4
 20
215.9
  9
$ORTHOMODE
 70
     0
  9
$REGENMODE
 70
     1
  9
$FILLMODE
 70
     1
  9
$QTEXTMODE
 70
     0
  9
$MIRRTEXT
 70
     1
  9
$LTSCALE
 40
1.0
  9
$ATTMODE
 70
     1
  9
$TEXTSIZE
 40
6.35
  9
$TRACEWID
 40
1.0
  9
$TEXTSTYLE
  7
Standard
  9
$CLAYER
  8
0
  9
$CELTYPE
  6
ByLayer
  9
$CECOLOR
 62
   256
  9
$CELTSCALE
 40
1.0
  9
$DISPSILH
 70
     0
  9
$DIMSCALE
 40
1.0
  9
$DIMASZ
 40
5.9944
  9
$DIMEXO
 40
0.9906
  9
$DIMDLI
 40
3.75
  9
$DIMRND
 40
0.0
  9
$DIMDLE
 40
0.0
  9
$DIMEXE
 40
0.9906
  9
$DIMTP
 40
0.0
  9
$DIMTM
 40
0.0
  9
$DIMTXT
 40
6.35
  9
$DIMCEN
 40
2.5
  9
$DIMTSZ
 40
0.0
  9
$DIMTOL
 70
     0
  9
$DIMLIM
 70
     0
  9
$DIMTIH
 70
     1
  9
$DIMTOH
 70
     1
  9
$DIMSE1
 70
     0
  9
$DIMSE2
 70
     0
  9
$DIMTAD
 70
     1
  9
$DIMZIN
 70
     0
  9
$DIMBLK
  1

  9
$DIMASO
 70
     1
  9
$DIMSHO
 70
     1
  9
$DIMPOST
  1

  9
$DIMAPOST
  1

  9
$DIMALT
 70
     0
  9
$DIMALTD
 70
     3
  9
$DIMALTF
 40
0.0393700787
  9
$DIMLFAC
 40
2.0
  9
$DIMTOFL
 70
     1
  9
$DIMTVP
 40
0.0
  9
$DIMTIX
 70
     0
  9
$DIMSOXD
 70
     0
  9
$DIMSAH
 70
     0
  9
$DIMBLK1
  1

  9
$DIMBLK2
  1

  9
$DIMSTYLE
  2
ISO-25
  9
$DIMCLRD
 70
     0
  9
$DIMCLRE
 70
     0
  9
$DIMCLRT
 70
     0
  9
$DIMTFAC
 40
1.0
  9
$DIMGAP
 40
1.524
  9
$DIMJUST
 70
     0
  9
$DIMSD1
 70
     0
  9
$DIMSD2
 70
     0
  9
$DIMTOLJ
 70
     0
  9
$DIMTZIN
 70
     0
  9
$DIMALTZ
 70
     0
  9
$DIMALTTZ
 70
     0
  9
$DIMUPT
 70
     0
  9
$DIMDEC
 70
     2
  9
$DIMTDEC
 70
     2
  9
$DIMALTU
 70
     2
  9
$DIMALTTD
 70
     3
  9
$DIMTXSTY
  7
Standard
  9
$DIMAUNIT
 70
     0
  9
$DIMADEC
 70
     2
  9
$DIMALTRND
 40
0.0
  9
$DIMAZIN
 70
     0
  9
$DIMDSEP
 70
    44
  9
$DIMATFIT
 70
     3
  9
$DIMFRAC
 70
     0
  9
$DIMLDRBLK
  1

  9
$DIMLUNIT
 70
     2
  9
$DIMLWD
 70
    -2
  9
$DIMLWE
 70
    -2
  9
$DIMTMOVE
 70
     0
  9
$LUNITS
 70
     2
  9
$LUPREC
 70
     2
  9
$SKETCHINC
 40
1.0
  9
$FILLETRAD
 40
10.0
  9
$AUNITS
 70
     0
  9
$AUPREC
 70
     2
  9
$MENU
  1
.
  9
$ELEVATION
 40
0.0
  9
$PELEVATION
 40
0.0
  9
$THICKNESS
 40
0.0
  9
$LIMCHECK
 70
     0
  9
$CHAMFERA
 40
0.0
  9
$CHAMFERB
 40
0.0
  9
$CHAMFERC
 40
0.0
  9
$CHAMFERD
 40
0.0
  9
$SKPOLY
 70
     0
  9
$TDCREATE
 40
2457851.5884611
  9
$TDUCREATE
 40
2457851.255127766
  9
$TDUPDATE
 40
2457851.588468854
  9
$TDUUPDATE
 40
2457851.255135521
  9
$TDINDWG
 40
0.0000000116
  9
$TDUSRTIMER
 40
0.0000000116
  9
$USRTIMER
 70
     1
  9
$ANGBASE
 50
0.0
  9
$ANGDIR
 70
     0
  9
$PDMODE
 70
     0
  9
$PDSIZE
 40
-1.0
  9
$PLINEWID
 40
0.0
  9
$SPLFRAME
 70
     0
  9
$SPLINETYPE
 70
     6
  9
$SPLINESEGS
 70
     8
  9
$HANDSEED
  5
189
  9
$SURFTAB1
 70
     6
  9
$SURFTAB2
 70
     6
  9
$SURFTYPE
 70
     6
  9
$SURFU
 70
     6
  9
$SURFV
 70
     6
  9
$UCSBASE
  2

  9
$UCSNAME
  2

  9
$UCSORG
 10
0.0
 20
0.0
 30
0.0
  9
$UCSXDIR
 10
1.0
 20
0.0
 30
0.0
  9
$UCSYDIR
 10
0.0
 20
1.0
 30
0.0
  9
$UCSORTHOREF
  2

  9
$UCSORTHOVIEW
 70
     0
  9
$UCSORGTOP
 10
0.0
 20
0.0
 30
0.0
  9
$UCSORGBOTTOM
 10
0.0
 20
0.0
 30
0.0
  9
$UCSORGLEFT
 10
0.0
 20
0.0
 30
0.0
  9
$UCSORGRIGHT
 10
0.0
 20
0.0
 30
0.0
  9
$UCSORGFRONT
 10
0.0
 20
0.0
 30
0.0
  9
$UCSORGBACK
 10
0.0
 20
0.0
 30
0.0
  9
$PUCSBASE
  2

  9
$PUCSNAME
  2

  9
$PUCSORG
 10
0.0
 20
0.0
 30
0.0
  9
$PUCSXDIR
 10
1.0
 20
0.0
 30
0.0
  9
$PUCSYDIR
 10
0.0
 20
1.0
 30
0.0
  9
$PUCSORTHOREF
  2

  9
$PUCSORTHOVIEW
 70
     0
  9
$PUCSORGTOP
 10
0.0
 20
0.0
 30
0.0
  9
$PUCSORGBOTTOM
 10
0.0
 20
0.0
 30
0.0
  9
$PUCSORGLEFT
 10
0.0
 20
0.0
 30
0.0
  9
$PUCSORGRIGHT
 10
0.0
 20
0.0
 30
0.0
  9
$PUCSORGFRONT
 10
0.0
 20
0.0
 30
0.0
  9
$PUCSORGBACK
 10
0.0
 20
0.0
 30
0.0
  9
$USERI1
 70
     0
  9
$USERI2
 70
     0
  9
$USERI3
 70
     0
  9
$USERI4
 70
     0
  9
$USERI5
 70
     0
  9
$USERR1
 40
0.0
  9
$USERR2
 40
0.0
  9
$USERR3
 40
0.0
  9
$USERR4
 40
0.0
  9
$USERR5
 40
0.0
  9
$WORLDVIEW
 70
     1
  9
$SHADEDGE
 70
     3
  9
$SHADEDIF
 70
    70
  9
$TILEMODE
 70
     1
  9
$MAXACTVP
 70
    64
  9
$PINSBASE
 10
0.0
 20
0.0
 30
0.0
  9
$PLIMCHECK
 70
     0
  9
$PEXTMIN
 10
1.0000000000E+20
 20
1.0000000000E+20
 30
1.0000000000E+20
  9
$PEXTMAX
 10
-1.0000000000E+20
 20
-1.0000000000E+20
 30
-1.0000000000E+20
  9
$PLIMMIN
 10
0.0
 20
0.0
  9
$PLIMMAX
 10
420.0
 20
297.0
  9
$UNITMODE
 70
     0
  9
$VISRETAIN
 70
     1
  9
$PLINEGEN
 70
     0
  9
$PSLTSCALE
 70
     1
  9
$TREEDEPTH
 70
  3020
  9
$CMLSTYLE
  2
Standard
  9
$CMLJUST
 70
     0
  9
$CMLSCALE
 40
20.0
  9
$PROXYGRAPHICS
 70
     1
  9
$MEASUREMENT
 70
     1
  9
$CELWEIGHT
370
    -1
  9
$ENDCAPS
280
     0
  9
$JOINSTYLE
280
     0
  9
$LWDISPLAY
290
     1
  9
$INSUNITS
 70
     4
  9
$HYPERLINKBASE
  1

  9
$STYLESHEET
  1

  9
$XEDIT
290
     1
  9
$CEPSNTYPE
380
     0
  9
$PSTYLEMODE
290
     1
  9
$FINGERPRINTGUID
  2
{26E40B5D-1C81-44EE-B299-68A9D8F41E7B}
  9
$VERSIONGUID
  2
{FAEB1C32-E019-11D5-929B-00C0DF256EC4}
  9
$EXTNAMES
290
     1
  9
$PSVPSCALE
 40
0.0
  9
$OLESTARTUP
290
     0
  9
$SORTENTS
280
   127
  9
$INDEXCTL
280
     0
  9
$HIDETEXT
280
     1
  9
$XCLIPFRAME
290
     0
  9
$HALOGAP
280
     0
  9
$OBSCOLOR
 70
   257
  9
$OBSLTYPE
280
     0
  9
$INTERSECTIONDISPLAY
280
     0
  9
$INTERSECTIONCOLOR
 70
   257
  9
$DIMASSOC
280
     2
  9
$PROJECTNAME
  1

  0
ENDSEC
  0
SECTION
  2
CLASSES
  0
CLASS
  1
ACDBDICTIONARYWDFLT
  2
AcDbDictionaryWithDefault
  3
ObjectDBX Classes
 90
        0
 91
        4
280
     0
281
     0
  0
CLASS
  1
VISUALSTYLE
  2
AcDbVisualStyle
  3
ObjectDBX Classes
 90
     4095
 91
        4
280
     0
281
     0
  0
CLASS
  1
MATERIAL
  2
AcDbMaterial
  3
ObjectDBX Classes
 90
     1153
 91
        4
280
     0
281
     0
  0
CLASS
  1
SCALE
  2
AcDbScale
  3
ObjectDBX Classes
 90
     1153
 91
        4
280
     0
281
     0
  0
CLASS
  1
SUN
  2
AcDbSun
  3
SCENEOE
 90
     1153
 91
        4
280
     0
281
     0
  0
CLASS
  1
DICTIONARYVAR
  2
AcDbDictionaryVar
  3
ObjectDBX Classes
 90
        0
 91
        4
280
     0
281
     0
  0
ENDSEC
  0
SECTION
  2
TABLES
  0
TABLE
  2
VPORT
  5
8
330
0
100
AcDbSymbolTable
 70
     1
  0
VPORT
  5
29
330
8
100
AcDbSymbolTableRecord
100
AcDbViewportTableRecord
  2
*Active
 70
     0
 10
0.0
 20
0.0
 11
1.0
 21
1.0
 12
139.7
 22
107.95
 13
0.0
 23
0.0
 14
10.0
 24
10.0
 15
10.0
 25
10.0
 16
0.0
 26
0.0
 36
1.0
 17
0.0
 27
0.0
 37
0.0
 40
215.9
 41
1.2941176471
 42
50.0
 43
0.0
 44
0.0
 50
0.0
 51
0.0
 71
     0
 72
  2000
 73
     1
 74
     3
 75
     0
 76
     0
 77
     0
 78
     0
281
     0
 65
     1
110
0.0
120
0.0
130
0.0
111
1.0
121
0.0
131
0.0
112
0.0
122
1.0
132
0.0
 79
     0
146
0.0
  0
ENDTAB
  0
TABLE
  2
LTYPE
  5
5
330
0
100
AcDbSymbolTable
 70
     6
  0
LTYPE
  5
14
330
5
100
AcDbSymbolTableRecord
100
AcDbLinetypeTableRecord
  2
ByBlock
 70
     0
  3

 72
    65
 73
     0
 40
0.0
  0
LTYPE
  5
15
330
5
100
AcDbSymbolTableRecord
100
AcDbLinetypeTableRecord
  2
ByLayer
 70
     0
  3

 72
    65
 73
     0
 40
0.0
  0
LTYPE
  5
16
330
5
100
AcDbSymbolTableRecord
100
AcDbLinetypeTableRecord
  2
Continuous
 70
     0
  3
Solid line
 72
    65
 73
     0
 40
0.0
  0
LTYPE
  5
6A
330
5
100
AcDbSymbolTableRecord
100
AcDbLinetypeTableRecord
  2
HIDDEN
 70
     0
  3
Hidden __ __ __ __ __ __ __ __ __ __ __ __ __ __
 72
    65
 73
     2
 40
1.905
 49
1.27
 74
     0
 49
-0.635
 74
     0
  0
LTYPE
  5
6B
330
5
100
AcDbSymbolTableRecord
100
AcDbLinetypeTableRecord
  2
PHANTOM
 70
     0
  3
Phantom ______  __  __  ______  __  __  ______
 72
    65
 73
     6
 40
12.7
 49
6.35
 74
     0
 49
-1.27
 74
     0
 49
1.27
 74
     0
 49
-1.27
 74
     0
 49
1.27
 74
     0
 49
-1.27
 74
     0
  0
LTYPE
  5
6C
330
5
100
AcDbSymbolTableRecord
100
AcDbLinetypeTableRecord
  2
CENTER
 70
     0
  3
Center ____ _ ____ _ ____ _ ____ _ ____ _ ____
 72
    65
 73
     4
 40
10.16
 49
6.35
 74
     0
 49
-1.27
 74
     0
 49
1.27
 74
     0
 49
-1.27
 74
     0
  0
LTYPE
  5
6D
330
5
100
AcDbSymbolTableRecord
100
AcDbLinetypeTableRecord
  2
CENTERX2
 70
     0
  3
Center (2x) ________  __  ________  __  _____
 72
    65
 73
     4
 40
20.32
 49
12.7
 74
     0
 49
-2.54
 74
     0
 49
2.54
 74
     0
 49
-2.54
 74
     0
  0
LTYPE
  5
6E
330
5
100
AcDbSymbolTableRecord
100
AcDbLinetypeTableRecord
  2
DOT2
 70
     0
  3
Dot (.5x) ........................................
 72
    65
 73
     2
 40
0.635
 49
0.0
 74
     0
 49
-0.635
 74
     0
  0
ENDTAB
  0
TABLE
  2
LAYER
  5
2
330
0
100
AcDbSymbolTable
 70
     2
  0
LAYER
  5
10
330
2
100
AcDbSymbolTableRecord
100
AcDbLayerTableRecord
  2
0
 70
     0
 62
     7
  6
Continuous
370
    -3
390
F
  0
LAYER
  5
6F
330
2
100
AcDbSymbolTableRecord
100
AcDbLayerTableRecord
  2
FORMAT
 70
     0
 62
     7
  6
Continuous
370
    -3
390
F
  0
ENDTAB
  0
TABLE
  2
STYLE
  5
3
330
0
100
AcDbSymbolTable
 70
     2
  0
STYLE
  5
11
330
3
100
AcDbSymbolTableRecord
100
AcDbTextStyleTableRecord
  2
Standard
 70
     0
 40
0.0
 41
1.0
 50
0.0
 71
     0
 42
6.35
  3
txt
  4

  0
STYLE
  5
90
330
3
100
AcDbSymbolTableRecord
100
AcDbTextStyleTableRecord
  2
SLDTEXTSTYLE0
 70
     0
 40
0.0
 41
0.75
 50
0.0
 71
     0
 42
6.35
  3
TXT
  4

  0
ENDTAB
  0
TABLE
  2
VIEW
  5
6
330
0
100
AcDbSymbolTable
 70
     0
  0
ENDTAB
  0
TABLE
  2
UCS
  5
7
330
0
100
AcDbSymbolTable
 70
     0
  0
ENDTAB
  0
TABLE
  2
APPID
  5
9
330
0
100
AcDbSymbolTable
 70
     1
  0
APPID
  5
12
330
9
100
AcDbSymbolTableRecord
100
AcDbRegAppTableRecord
  2
ACAD
 70
     0
  0
ENDTAB
  0
TABLE
  2
DIMSTYLE
  5
A
330
0
100
AcDbSymbolTable
 70
     3
100
AcDbDimStyleTable
  0
DIMSTYLE
105
27
330
A
100
AcDbSymbolTableRecord
100
AcDbDimStyleTableRecord
  2
ISO-25
 70
     0
 41
2.5
 42
0.625
 43
3.75
 44
1.25
 73
     0
 74
     0
 77
     1
 78
     8
140
2.5
141
2.5
143
0.0393700787
147
0.625
171
     3
172
     1
178
     0
271
     2
272
     2
274
     3
278
    44
283
     0
284
     8
340
11
  0
DIMSTYLE
105
91
102
{ACAD_REACTORS
330
8F
330
A4
330
ED
330
F9
330
105
330
125
330
159
102
}
330
A
100
AcDbSymbolTableRecord
100
AcDbDimStyleTableRecord
  2
SLDDIMSTYLE0
 70
     0
 41
5.9944
 44
0.0
 45
0.000000001
 73
     0
 74
     0
 77
     1
 78
    12
 79
     3
140
6.35
144
2.0
147
1.5875
172
     1
173
     1
178
     0
271
     6
272
     2
276
     2
284
    12
289
     0
340
90
341
92
343
92
344
92
  0
DIMSTYLE
105
B1
102
{ACAD_REACTORS
330
B0
330
BB
330
C5
330
CF
330
D9
330
E3
330
111
330
11B
330
131
330
13B
330
145
330
14F
330
165
330
16F
330
179
102
}
330
A
100
AcDbSymbolTableRecord
100
AcDbDimStyleTableRecord
  2
SLDDIMSTYLE1
 70
     0
 41
5.9944
 44
0.0
 45
0.000000001
 73
     0
 74
     0
 77
     1
 78
    12
 79
     3
140
6.35
144
2.0
147
1.5875
173
     1
178
     0
271
     6
272
     2
276
     2
284
    12
340
90
341
92
343
92
344
92
  0
ENDTAB
  0
TABLE
  2
BLOCK_RECORD
  5
1
330
0
100
AcDbSymbolTable
 70
    24
  0
BLOCK_RECORD
  5
1F
330
1
100
AcDbSymbolTableRecord
100
AcDbBlockTableRecord
  2
*Model_Space
340
22
  0
BLOCK_RECORD
  5
1B
330
1
100
AcDbSymbolTableRecord
100
AcDbBlockTableRecord
  2
*Paper_Space
340
1E
  0
BLOCK_RECORD
  5
23
330
1
100
AcDbSymbolTableRecord
100
AcDbBlockTableRecord
  2
*Paper_Space0
340
26
  0
BLOCK_RECORD
  5
92
330
1
100
AcDbSymbolTableRecord
100
AcDbBlockTableRecord
  2
_CLOSED
340
0
102
{BLKREFS
331
9C
331
9D
331
A8
331
A9
331
B5
331
B6
331
BF
331
C0
331
C9
331
CA
331
D3
331
D4
331
DD
331
DE
331
E7
331
E8
331
F1
331
F2
331
FD
331
FE
331
109
331
10A
331
115
331
116
331
11F
331
120
331
129
331
12A
331
135
331
136
331
13F
331
140
331
149
331
14A
331
153
331
154
331
15D
331
15E
331
169
331
16A
331
173
331
174
331
17D
331
17E
102
}
  0
BLOCK_RECORD
  5
99
330
1
100
AcDbSymbolTableRecord
100
AcDbBlockTableRecord
  2
_D
340
0
  0
BLOCK_RECORD
  5
A5
330
1
100
AcDbSymbolTableRecord
100
AcDbBlockTableRecord
  2
_D_1
340
0
  0
BLOCK_RECORD
  5
B2
330
1
100
AcDbSymbolTableRecord
100
AcDbBlockTableRecord
  2
_D_2
340
0
  0
BLOCK_RECORD
  5
BC
330
1
100
AcDbSymbolTableRecord
100
AcDbBlockTableRecord
  2
_D_3
340
0
  0
BLOCK_RECORD
  5
C6
330
1
100
AcDbSymbolTableRecord
100
AcDbBlockTableRecord
  2
_D_4
340
0
  0
BLOCK_RECORD
  5
D0
330
1
100
AcDbSymbolTableRecord
100
AcDbBlockTableRecord
  2
_D_5
340
0
  0
BLOCK_RECORD
  5
DA
330
1
100
AcDbSymbolTableRecord
100
AcDbBlockTableRecord
  2
_D_6
340
0
  0
BLOCK_RECORD
  5
E4
330
1
100
AcDbSymbolTableRecord
100
AcDbBlockTableRecord
  2
_D_7
340
0
  0
BLOCK_RECORD
  5
EE
330
1
100
AcDbSymbolTableRecord
100
AcDbBlockTableRecord
  2
_D_8
340
0
  0
BLOCK_RECORD
  5
FA
330
1
100
AcDbSymbolTableRecord
100
AcDbBlockTableRecord
  2
_D_9
340
0
  0
BLOCK_RECORD
  5
106
330
1
100
AcDbSymbolTableRecord
100
AcDbBlockTableRecord
  2
_D_10
340
0
  0
BLOCK_RECORD
  5
112
330
1
100
AcDbSymbolTableRecord
100
AcDbBlockTableRecord
  2
_D_11
340
0
  0
BLOCK_RECORD
  5
11C
330
1
100
AcDbSymbolTableRecord
100
AcDbBlockTableRecord
  2
_D_12
340
0
  0
BLOCK_RECORD
  5
126
330
1
100
AcDbSymbolTableRecord
100
AcDbBlockTableRecord
  2
_D_13
340
0
  0
BLOCK_RECORD
  5
132
330
1
100
AcDbSymbolTableRecord
100
AcDbBlockTableRecord
  2
_D_14
340
0
  0
BLOCK_RECORD
  5
13C
330
1
100
AcDbSymbolTableRecord
100
AcDbBlockTableRecord
  2
_D_15
340
0
  0
BLOCK_RECORD
  5
146
330
1
100
AcDbSymbolTableRecord
100
AcDbBlockTableRecord
  2
_D_16
340
0
  0
BLOCK_RECORD
  5
150
330
1
100
AcDbSymbolTableRecord
100
AcDbBlockTableRecord
  2
_D_17
340
0
  0
BLOCK_RECORD
  5
15A
330
1
100
AcDbSymbolTableRecord
100
AcDbBlockTableRecord
  2
_D_18
340
0
  0
BLOCK_RECORD
  5
166
330
1
100
AcDbSymbolTableRecord
100
AcDbBlockTableRecord
  2
_D_19
340
0
  0
BLOCK_RECORD
  5
170
330
1
100
AcDbSymbolTableRecord
100
AcDbBlockTableRecord
  2
_D_20
340
0
  0
BLOCK_RECORD
  5
17A
330
1
100
AcDbSymbolTableRecord
100
AcDbBlockTableRecord
  2
_D_21
340
0
  0
ENDTAB
  0
ENDSEC
  0
SECTION
  2
BLOCKS
  0
BLOCK
  5
20
330
1F
100
AcDbEntity
  8
0
100
AcDbBlockBegin
  2
*Model_Space
 70
     0
 10
0.0
 20
0.0
 30
0.0
  3
*Model_Space
  1
*Model_Space
  0
ENDBLK
  5
21
330
1F
100
AcDbEntity
  8
0
100
AcDbBlockEnd
  0
BLOCK
  5
1C
330
1B
100
AcDbEntity
 67
     1
  8
0
100
AcDbBlockBegin
  2
*Paper_Space
 70
     0
 10
0.0
 20
0.0
 30
0.0
  3
*Paper_Space
  1
*Paper_Space
  0
ENDBLK
  5
1D
330
1B
100
AcDbEntity
 67
     1
  8
0
100
AcDbBlockEnd
  0
BLOCK
  5
24
330
23
100
AcDbEntity
  8
0
100
AcDbBlockBegin
  2
*Paper_Space0
 70
     0
 10
0.0
 20
0.0
 30
0.0
  3
*Paper_Space0
  1
*Paper_Space0
  0
ENDBLK
  5
25
330
23
100
AcDbEntity
  8
0
100
AcDbBlockEnd
  0
BLOCK
  5
93
330
92
100
AcDbEntity
  8
0
100
AcDbBlockBegin
  2
_CLOSED
 70
     0
 10
0.0
 20
0.0
 30
0.0
  3
_CLOSED
  1
_CLOSED
  0
LINE
  5
95
330
92
100
AcDbEntity
  8
0
  6
ByBlock
 62
     0
370
    -2
100
AcDbLine
 10
-1.0
 20
0.166667
 30
0.0
 11
0.0
 21
0.0
 31
0.0
  0
LINE
  5
96
330
92
100
AcDbEntity
  8
0
  6
ByBlock
 62
     0
370
    -2
100
AcDbLine
 10
0.0
 20
0.0
 30
0.0
 11
-1.0
 21
-0.166667
 31
0.0
  0
LINE
  5
97
330
92
100
AcDbEntity
  8
0
  6
ByBlock
 62
     0
370
    -2
100
AcDbLine
 10
-1.0
 20
0.166667
 30
0.0
 11
-1.0
 21
-0.166667
 31
0.0
  0
LINE
  5
98
330
92
100
AcDbEntity
  8
0
  6
ByBlock
 62
     0
370
    -2
100
AcDbLine
 10
0.0
 20
0.0
 30
0.0
 11
-1.0
 21
0.0
 31
0.0
  0
ENDBLK
  5
94
330
92
100
AcDbEntity
  8
0
100
AcDbBlockEnd
  0
BLOCK
  5
9A
330
99
100
AcDbEntity
  8
0
100
AcDbBlockBegin
  2
_D
 70
     0
 10
0.0
 20
0.0
 30
0.0
  3
_D
  1
_D
  0
INSERT
  5
9C
330
99
100
AcDbEntity
  8
FORMAT
100
AcDbBlockReference
  2
_CLOSED
 10
63.8194686383
 20
69.3351245274
 30
0.05
 41
5.9944
 42
5.9944
 50
270.0
  0
INSERT
  5
9D
330
99
100
AcDbEntity
  8
FORMAT
100
AcDbBlockReference
  2
_CLOSED
 10
63.8194686383
 20
54.3351245274
 30
0.05
 41
5.9944
 42
5.9944
 50
90.0
  0
LINE
  5
9E
330
99
100
AcDbEntity
  8
FORMAT
100
AcDbLine
 10
89.6588723374
 20
69.3351245274
 30
0.0
 11
62.8288686383
 21
69.3351245274
 31
0.0
  0
LINE
  5
9F
330
99
100
AcDbEntity
  8
FORMAT
100
AcDbLine
 10
64.6588723374
 20
54.3351245274
 30
0.0
 11
62.8288686383
 21
54.3351245274
 31
0.0
  0
LINE
  5
A0
330
99
100
AcDbEntity
  8
FORMAT
100
AcDbLine
 10
63.8194686383
 20
69.3351245274
 30
0.0
 11
63.8194686383
 21
81.3239245274
 31
0.0
  0
LINE
  5
A1
330
99
100
AcDbEntity
  8
FORMAT
100
AcDbLine
 10
63.8194686383
 20
69.3351245274
 30
0.0
 11
63.8194686383
 21
54.3351245274
 31
0.0
  0
LINE
  5
A2
330
99
100
AcDbEntity
  8
FORMAT
100
AcDbLine
 10
63.8194686383
 20
54.3351245274
 30
0.0
 11
63.8194686383
 21
42.3463245274
 31
0.0
  0
MTEXT
  5
A3
330
99
100
AcDbEntity
  8
FORMAT
100
AcDbMText
 10
55.6338877922
 20
57.6473108462
 30
0.0
 40
6.35
 41
0.0
 71
     1
 72
     1
  1
30
  7
SLDTEXTSTYLE0
 11
2.725767599057743E-15
 21
1.0
 31
0.0
 73
     1
 44
1.0
  0
ENDBLK
  5
9B
330
99
100
AcDbEntity
  8
0
100
AcDbBlockEnd
  0
BLOCK
  5
A6
330
A5
100
AcDbEntity
  8
0
100
AcDbBlockBegin
  2
_D_1
 70
     0
 10
0.0
 20
0.0
 30
0.0
  3
_D_1
  1
_D_1
  0
INSERT
  5
A8
330
A5
100
AcDbEntity
  8
FORMAT
100
AcDbBlockReference
  2
_CLOSED
 10
46.8851401673
 20
79.3351245274
 30
0.05
 41
5.9944
 42
5.9944
 50
270.0
  0
INSERT
  5
A9
330
A5
100
AcDbEntity
  8
FORMAT
100
AcDbBlockReference
  2
_CLOSED
 10
46.8851401673
 20
54.3351245274
 30
0.05
 41
5.9944
 42
5.9944
 50
90.0
  0
LINE
  5
AA
330
A5
100
AcDbEntity
  8
FORMAT
100
AcDbLine
 10
89.6588723374
 20
79.3351245274
 30
0.0
 11
45.8945401673
 21
79.3351245274
 31
0.0
  0
LINE
  5
AB
330
A5
100
AcDbEntity
  8
FORMAT
100
AcDbLine
 10
64.6588723374
 20
54.3351245274
 30
0.0
 11
45.8945401673
 21
54.3351245274
 31
0.0
  0
LINE
  5
AC
330
A5
100
AcDbEntity
  8
FORMAT
100
AcDbLine
 10
46.8851401673
 20
79.3351245274
 30
0.0
 11
46.8851401673
 21
91.3239245274
 31
0.0
  0
LINE
  5
AD
330
A5
100
AcDbEntity
  8
FORMAT
100
AcDbLine
 10
46.8851401673
 20
79.3351245274
 30
0.0
 11
46.8851401673
 21
54.3351245274
 31
0.0
  0
LINE
  5
AE
330
A5
100
AcDbEntity
  8
FORMAT
100
AcDbLine
 10
46.8851401673
 20
54.3351245274
 30
0.0
 11
46.8851401673
 21
42.3463245274
 31
0.0
  0
MTEXT
  5
AF
330
A5
100
AcDbEntity
  8
FORMAT
100
AcDbMText
 10
38.6995593213
 20
63.4285767725
 30
0.0
 40
6.35
 41
0.0
 71
     1
 72
     1
  1
50
  7
SLDTEXTSTYLE0
 11
-7.044195017643634E-15
 21
1.0
 31
0.0
 73
     1
 44
1.0
  0
ENDBLK
  5
A7
330
A5
100
AcDbEntity
  8
0
100
AcDbBlockEnd
  0
BLOCK
  5
B3
330
B2
100
AcDbEntity
  8
0
100
AcDbBlockBegin
  2
_D_2
 70
     0
 10
0.0
 20
0.0
 30
0.0
  3
_D_2
  1
_D_2
  0
INSERT
  5
B5
330
B2
100
AcDbEntity
  8
FORMAT
100
AcDbBlockReference
  2
_CLOSED
 10
30.4985723905
 20
99.3351245274
 30
0.05
 41
5.9944
 42
5.9944
 50
90.0
  0
INSERT
  5
B6
330
B2
100
AcDbEntity
  8
FORMAT
100
AcDbBlockReference
  2
_CLOSED
 10
30.4985723905
 20
54.3351245274
 30
0.05
 41
5.9944
 42
5.9944
 50
270.0
  0
LINE
  5
B7
330
B2
100
AcDbEntity
  8
FORMAT
100
AcDbLine
 10
89.6588723374
 20
99.3351245274
 30
0.0
 11
29.5079723905
 21
99.3351245274
 31
0.0
  0
LINE
  5
B8
330
B2
100
AcDbEntity
  8
FORMAT
100
AcDbLine
 10
64.6588723374
 20
54.3351245274
 30
0.0
 11
29.5079723905
 21
54.3351245274
 31
0.0
  0
LINE
  5
B9
330
B2
100
AcDbEntity
  8
FORMAT
100
AcDbLine
 10
30.4985723905
 20
99.3351245274
 30
0.0
 11
30.4985723905
 21
54.3351245274
 31
0.0
  0
MTEXT
  5
BA
330
B2
100
AcDbEntity
  8
FORMAT
100
AcDbMText
 10
22.3129915445
 20
71.5639144397
 30
0.0
 40
6.35
 41
0.0
 71
     1
 72
     1
  1
90
  7
SLDTEXTSTYLE0
 11
-7.044195017643634E-15
 21
1.0
 31
0.0
 73
     1
 44
1.0
  0
ENDBLK
  5
B4
330
B2
100
AcDbEntity
  8
0
100
AcDbBlockEnd
  0
BLOCK
  5
BD
330
BC
100
AcDbEntity
  8
0
100
AcDbBlockBegin
  2
_D_3
 70
     0
 10
0.0
 20
0.0
 30
0.0
  3
_D_3
  1
_D_3
  0
INSERT
  5
BF
330
BC
100
AcDbEntity
  8
FORMAT
100
AcDbBlockReference
  2
_CLOSED
 10
38.6053267196
 20
91.8351245274
 30
0.05
 41
5.9944
 42
5.9944
 50
90.0
  0
INSERT
  5
C0
330
BC
100
AcDbEntity
  8
FORMAT
100
AcDbBlockReference
  2
_CLOSED
 10
38.6053267196
 20
54.3351245274
 30
0.05
 41
5.9944
 42
5.9944
 50
270.0
  0
LINE
  5
C1
330
BC
100
AcDbEntity
  8
FORMAT
100
AcDbLine
 10
227.1588723374
 20
91.8351245274
 30
0.0
 11
37.6147267196
 21
91.8351245274
 31
0.0
  0
LINE
  5
C2
330
BC
100
AcDbEntity
  8
FORMAT
100
AcDbLine
 10
64.6588723374
 20
54.3351245274
 30
0.0
 11
37.6147267196
 21
54.3351245274
 31
0.0
  0
LINE
  5
C3
330
BC
100
AcDbEntity
  8
FORMAT
100
AcDbLine
 10
38.6053267196
 20
91.8351245274
 30
0.0
 11
38.6053267196
 21
54.3351245274
 31
0.0
  0
MTEXT
  5
C4
330
BC
100
AcDbEntity
  8
FORMAT
100
AcDbMText
 10
30.4197458735
 20
69.3373243856
 30
0.0
 40
6.35
 41
0.0
 71
     1
 72
     1
  1
75
  7
SLDTEXTSTYLE0
 11
-7.044195017643634E-15
 21
1.0
 31
0.0
 73
     1
 44
1.0
  0
ENDBLK
  5
BE
330
BC
100
AcDbEntity
  8
0
100
AcDbBlockEnd
  0
BLOCK
  5
C7
330
C6
100
AcDbEntity
  8
0
100
AcDbBlockBegin
  2
_D_4
 70
     0
 10
0.0
 20
0.0
 30
0.0
  3
_D_4
  1
_D_4
  0
INSERT
  5
C9
330
C6
100
AcDbEntity
  8
FORMAT
100
AcDbBlockReference
  2
_CLOSED
 10
21.9769439036
 20
101.8351245274
 30
0.05
 41
5.9944
 42
5.9944
 50
90.0
  0
INSERT
  5
CA
330
C6
100
AcDbEntity
  8
FORMAT
100
AcDbBlockReference
  2
_CLOSED
 10
21.9769439036
 20
54.3351245274
 30
0.05
 41
5.9944
 42
5.9944
 50
270.0
  0
LINE
  5
CB
330
C6
100
AcDbEntity
  8
FORMAT
100
AcDbLine
 10
172.1588723374
 20
101.8351245274
 30
0.0
 11
20.9863439036
 21
101.8351245274
 31
0.0
  0
LINE
  5
CC
330
C6
100
AcDbEntity
  8
FORMAT
100
AcDbLine
 10
64.6588723374
 20
54.3351245274
 30
0.0
 11
20.9863439036
 21
54.3351245274
 31
0.0
  0
LINE
  5
CD
330
C6
100
AcDbEntity
  8
FORMAT
100
AcDbLine
 10
21.9769439036
 20
101.8351245274
 30
0.0
 11
21.9769439036
 21
54.3351245274
 31
0.0
  0
MTEXT
  5
CE
330
C6
100
AcDbEntity
  8
FORMAT
100
AcDbMText
 10
13.7913630576
 20
74.5182882463
 30
0.0
 40
6.35
 41
0.0
 71
     1
 72
     1
  1
95
  7
SLDTEXTSTYLE0
 11
-7.044195017643634E-15
 21
1.0
 31
0.0
 73
     1
 44
1.0
  0
ENDBLK
  5
C8
330
C6
100
AcDbEntity
  8
0
100
AcDbBlockEnd
  0
BLOCK
  5
D1
330
D0
100
AcDbEntity
  8
0
100
AcDbBlockBegin
  2
_D_5
 70
     0
 10
0.0
 20
0.0
 30
0.0
  3
_D_5
  1
_D_5
  0
INSERT
  5
D3
330
D0
100
AcDbEntity
  8
FORMAT
100
AcDbBlockReference
  2
_CLOSED
 10
13.7898444098
 20
106.8351245274
 30
0.05
 41
5.9944
 42
5.9944
 50
90.0
  0
INSERT
  5
D4
330
D0
100
AcDbEntity
  8
FORMAT
100
AcDbBlockReference
  2
_CLOSED
 10
13.7898444098
 20
54.3351245274
 30
0.05
 41
5.9944
 42
5.9944
 50
270.0
  0
LINE
  5
D5
330
D0
100
AcDbEntity
  8
FORMAT
100
AcDbLine
 10
132.1588723374
 20
106.8351245274
 30
0.0
 11
12.7992444098
 21
106.8351245274
 31
0.0
  0
LINE
  5
D6
330
D0
100
AcDbEntity
  8
FORMAT
100
AcDbLine
 10
64.6588723374
 20
54.3351245274
 30
0.0
 11
12.7992444098
 21
54.3351245274
 31
0.0
  0
LINE
  5
D7
330
D0
100
AcDbEntity
  8
FORMAT
100
AcDbLine
 10
13.7898444098
 20
106.8351245274
 30
0.0
 11
13.7898444098
 21
54.3351245274
 31
0.0
  0
MTEXT
  5
D8
330
D0
100
AcDbEntity
  8
FORMAT
100
AcDbMText
 10
5.6042635638
 20
75.1483092225
 30
0.0
 40
6.35
 41
0.0
 71
     1
 72
     1
  1
105
  7
SLDTEXTSTYLE0
 11
-7.044195017643634E-15
 21
1.0
 31
0.0
 73
     1
 44
1.0
  0
ENDBLK
  5
D2
330
D0
100
AcDbEntity
  8
0
100
AcDbBlockEnd
  0
BLOCK
  5
DB
330
DA
100
AcDbEntity
  8
0
100
AcDbBlockBegin
  2
_D_6
 70
     0
 10
0.0
 20
0.0
 30
0.0
  3
_D_6
  1
_D_6
  0
INSERT
  5
DD
330
DA
100
AcDbEntity
  8
FORMAT
100
AcDbBlockReference
  2
_CLOSED
 10
13.7898444098
 20
119.3351245274
 30
0.05
 41
5.9944
 42
5.9944
 50
90.0
  0
INSERT
  5
DE
330
DA
100
AcDbEntity
  8
FORMAT
100
AcDbBlockReference
  2
_CLOSED
 10
13.7898444098
 20
54.3351245274
 30
0.05
 41
5.9944
 42
5.9944
 50
270.0
  0
LINE
  5
DF
330
DA
100
AcDbEntity
  8
FORMAT
100
AcDbLine
 10
89.6588723374
 20
119.3351245274
 30
0.0
 11
12.7992444098
 21
119.3351245274
 31
0.0
  0
LINE
  5
E0
330
DA
100
AcDbEntity
  8
FORMAT
100
AcDbLine
 10
64.6588723374
 20
54.3351245274
 30
0.0
 11
12.7992444098
 21
54.3351245274
 31
0.0
  0
LINE
  5
E1
330
DA
100
AcDbEntity
  8
FORMAT
100
AcDbLine
 10
13.7898444098
 20
119.3351245274
 30
0.0
 11
13.7898444098
 21
54.3351245274
 31
0.0
  0
MTEXT
  5
E2
330
DA
100
AcDbEntity
  8
FORMAT
100
AcDbMText
 10
5.6042635638
 20
98.1119030535
 30
0.0
 40
6.35
 41
0.0
 71
     1
 72
     1
  1
130
  7
SLDTEXTSTYLE0
 11
-7.044195017643634E-15
 21
1.0
 31
0.0
 73
     1
 44
1.0
  0
ENDBLK
  5
DC
330
DA
100
AcDbEntity
  8
0
100
AcDbBlockEnd
  0
BLOCK
  5
E5
330
E4
100
AcDbEntity
  8
0
100
AcDbBlockBegin
  2
_D_7
 70
     0
 10
0.0
 20
0.0
 30
0.0
  3
_D_7
  1
_D_7
  0
INSERT
  5
E7
330
E4
100
AcDbEntity
  8
FORMAT
100
AcDbBlockReference
  2
_CLOSED
 10
30.4985723905
 20
134.3351245274
 30
0.05
 41
5.9944
 42
5.9944
 50
270.0
  0
INSERT
  5
E8
330
E4
100
AcDbEntity
  8
FORMAT
100
AcDbBlockReference
  2
_CLOSED
 10
30.4985723905
 20
204.3351245274
 30
0.05
 41
5.9944
 42
5.9944
 50
90.0
  0
LINE
  5
E9
330
E4
100
AcDbEntity
  8
FORMAT
100
AcDbLine
 10
199.6588723374
 20
134.3351245274
 30
0.0
 11
29.5079723905
 21
134.3351245274
 31
0.0
  0
LINE
  5
EA
330
E4
100
AcDbEntity
  8
FORMAT
100
AcDbLine
 10
64.6588723374
 20
204.3351245274
 30
0.0
 11
29.5079723905
 21
204.3351245274
 31
0.0
  0
LINE
  5
EB
330
E4
100
AcDbEntity
  8
FORMAT
100
AcDbLine
 10
30.4985723905
 20
134.3351245274
 30
0.0
 11
30.4985723905
 21
204.3351245274
 31
0.0
  0
MTEXT
  5
EC
330
E4
100
AcDbEntity
  8
FORMAT
100
AcDbMText
 10
22.3129915445
 20
161.735386604
 30
0.0
 40
6.35
 41
0.0
 71
     1
 72
     1
  1
140
  7
SLDTEXTSTYLE0
 11
6.123233995736766E-17
 21
1.0
 31
0.0
 73
     1
 44
1.0
  0
ENDBLK
  5
E6
330
E4
100
AcDbEntity
  8
0
100
AcDbBlockEnd
  0
BLOCK
  5
EF
330
EE
100
AcDbEntity
  8
0
100
AcDbBlockBegin
  2
_D_8
 70
     0
 10
0.0
 20
0.0
 30
0.0
  3
_D_8
  1
_D_8
  0
INSERT
  5
F1
330
EE
100
AcDbEntity
  8
FORMAT
100
AcDbBlockReference
  2
_CLOSED
 10
55.8930156793
 20
71.8351245274
 30
0.05
 41
5.9944
 42
5.9944
 50
270.0
  0
INSERT
  5
F2
330
EE
100
AcDbEntity
  8
FORMAT
100
AcDbBlockReference
  2
_CLOSED
 10
55.8930156793
 20
54.3351245274
 30
0.05
 41
5.9944
 42
5.9944
 50
90.0
  0
LINE
  5
F3
330
EE
100
AcDbEntity
  8
FORMAT
100
AcDbLine
 10
199.6588723374
 20
71.8351245274
 30
0.0
 11
54.9024156793
 21
71.8351245274
 31
0.0
  0
LINE
  5
F4
330
EE
100
AcDbEntity
  8
FORMAT
100
AcDbLine
 10
64.6588723374
 20
54.3351245274
 30
0.0
 11
54.9024156793
 21
54.3351245274
 31
0.0
  0
LINE
  5
F5
330
EE
100
AcDbEntity
  8
FORMAT
100
AcDbLine
 10
55.8930156793
 20
71.8351245274
 30
0.0
 11
55.8930156793
 21
83.8239245274
 31
0.0
  0
LINE
  5
F6
330
EE
100
AcDbEntity
  8
FORMAT
100
AcDbLine
 10
55.8930156793
 20
71.8351245274
 30
0.0
 11
55.8930156793
 21
54.3351245274
 31
0.0
  0
LINE
  5
F7
330
EE
100
AcDbEntity
  8
FORMAT
100
AcDbLine
 10
55.8930156793
 20
54.3351245274
 30
0.0
 11
55.8930156793
 21
42.3463245274
 31
0.0
  0
MTEXT
  5
F8
330
EE
100
AcDbEntity
  8
FORMAT
100
AcDbMText
 10
47.7074348332
 20
61.2906544977
 30
0.0
 40
6.35
 41
0.0
 71
     1
 72
     1
  1
35
  7
SLDTEXTSTYLE0
 11
-7.044195017643634E-15
 21
1.0
 31
0.0
 73
     1
 44
1.0
  0
ENDBLK
  5
F0
330
EE
100
AcDbEntity
  8
0
100
AcDbBlockEnd
  0
BLOCK
  5
FB
330
FA
100
AcDbEntity
  8
0
100
AcDbBlockBegin
  2
_D_9
 70
     0
 10
0.0
 20
0.0
 30
0.0
  3
_D_9
  1
_D_9
  0
INSERT
  5
FD
330
FA
100
AcDbEntity
  8
FORMAT
100
AcDbBlockReference
  2
_CLOSED
 10
63.8194686383
 20
189.3351245274
 30
0.05
 41
5.9944
 42
5.9944
 50
90.0
  0
INSERT
  5
FE
330
FA
100
AcDbEntity
  8
FORMAT
100
AcDbBlockReference
  2
_CLOSED
 10
63.8194686383
 20
204.3351245274
 30
0.05
 41
5.9944
 42
5.9944
 50
270.0
  0
LINE
  5
FF
330
FA
100
AcDbEntity
  8
FORMAT
100
AcDbLine
 10
97.8297987737
 20
189.3351245274
 30
0.0
 11
62.8288686383
 21
189.3351245274
 31
0.0
  0
LINE
  5
100
330
FA
100
AcDbEntity
  8
FORMAT
100
AcDbLine
 10
64.6588723374
 20
204.3351245274
 30
0.0
 11
62.8288686383
 21
204.3351245274
 31
0.0
  0
LINE
  5
101
330
FA
100
AcDbEntity
  8
FORMAT
100
AcDbLine
 10
63.8194686383
 20
189.3351245274
 30
0.0
 11
63.8194686383
 21
177.3463245274
 31
0.0
  0
LINE
  5
102
330
FA
100
AcDbEntity
  8
FORMAT
100
AcDbLine
 10
63.8194686383
 20
189.3351245274
 30
0.0
 11
63.8194686383
 21
204.3351245274
 31
0.0
  0
LINE
  5
103
330
FA
100
AcDbEntity
  8
FORMAT
100
AcDbLine
 10
63.8194686383
 20
204.3351245274
 30
0.0
 11
63.8194686383
 21
216.3239245274
 31
0.0
  0
MTEXT
  5
104
330
FA
100
AcDbEntity
  8
FORMAT
100
AcDbMText
 10
55.6338877922
 20
193.0282014471
 30
0.0
 40
6.35
 41
0.0
 71
     1
 72
     1
  1
30
  7
SLDTEXTSTYLE0
 11
6.123233995736766E-17
 21
1.0
 31
0.0
 73
     1
 44
1.0
  0
ENDBLK
  5
FC
330
FA
100
AcDbEntity
  8
0
100
AcDbBlockEnd
  0
BLOCK
  5
107
330
106
100
AcDbEntity
  8
0
100
AcDbBlockBegin
  2
_D_10
 70
     0
 10
0.0
 20
0.0
 30
0.0
  3
_D_10
  1
_D_10
  0
INSERT
  5
109
330
106
100
AcDbEntity
  8
FORMAT
100
AcDbBlockReference
  2
_CLOSED
 10
55.8930156793
 20
179.3351245274
 30
0.05
 41
5.9944
 42
5.9944
 50
90.0
  0
INSERT
  5
10A
330
106
100
AcDbEntity
  8
FORMAT
100
AcDbBlockReference
  2
_CLOSED
 10
55.8930156793
 20
204.3351245274
 30
0.05
 41
5.9944
 42
5.9944
 50
270.0
  0
LINE
  5
10B
330
106
100
AcDbEntity
  8
FORMAT
100
AcDbLine
 10
239.6588723374
 20
179.3351245274
 30
0.0
 11
54.9024156793
 21
179.3351245274
 31
0.0
  0
LINE
  5
10C
330
106
100
AcDbEntity
  8
FORMAT
100
AcDbLine
 10
64.6588723374
 20
204.3351245274
 30
0.0
 11
54.9024156793
 21
204.3351245274
 31
0.0
  0
LINE
  5
10D
330
106
100
AcDbEntity
  8
FORMAT
100
AcDbLine
 10
55.8930156793
 20
179.3351245274
 30
0.0
 11
55.8930156793
 21
167.3463245274
 31
0.0
  0
LINE
  5
10E
330
106
100
AcDbEntity
  8
FORMAT
100
AcDbLine
 10
55.8930156793
 20
179.3351245274
 30
0.0
 11
55.8930156793
 21
204.3351245274
 31
0.0
  0
LINE
  5
10F
330
106
100
AcDbEntity
  8
FORMAT
100
AcDbLine
 10
55.8930156793
 20
204.3351245274
 30
0.0
 11
55.8930156793
 21
216.3239245274
 31
0.0
  0
MTEXT
  5
110
330
106
100
AcDbEntity
  8
FORMAT
100
AcDbMText
 10
47.7074348332
 20
188.1200672123
 30
0.0
 40
6.35
 41
0.0
 71
     1
 72
     1
  1
50
  7
SLDTEXTSTYLE0
 11
6.123233995736766E-17
 21
1.0
 31
0.0
 73
     1
 44
1.0
  0
ENDBLK
  5
108
330
106
100
AcDbEntity
  8
0
100
AcDbBlockEnd
  0
BLOCK
  5
113
330
112
100
AcDbEntity
  8
0
100
AcDbBlockBegin
  2
_D_11
 70
     0
 10
0.0
 20
0.0
 30
0.0
  3
_D_11
  1
_D_11
  0
INSERT
  5
115
330
112
100
AcDbEntity
  8
FORMAT
100
AcDbBlockReference
  2
_CLOSED
 10
46.8851401673
 20
164.3351245274
 30
0.05
 41
5.9944
 42
5.9944
 50
270.0
  0
INSERT
  5
116
330
112
100
AcDbEntity
  8
FORMAT
100
AcDbBlockReference
  2
_CLOSED
 10
46.8851401673
 20
204.3351245274
 30
0.05
 41
5.9944
 42
5.9944
 50
90.0
  0
LINE
  5
117
330
112
100
AcDbEntity
  8
FORMAT
100
AcDbLine
 10
199.6588723374
 20
164.3351245274
 30
0.0
 11
45.8945401673
 21
164.3351245274
 31
0.0
  0
LINE
  5
118
330
112
100
AcDbEntity
  8
FORMAT
100
AcDbLine
 10
64.6588723374
 20
204.3351245274
 30
0.0
 11
45.8945401673
 21
204.3351245274
 31
0.0
  0
LINE
  5
119
330
112
100
AcDbEntity
  8
FORMAT
100
AcDbLine
 10
46.8851401673
 20
164.3351245274
 30
0.0
 11
46.8851401673
 21
204.3351245274
 31
0.0
  0
MTEXT
  5
11A
330
112
100
AcDbEntity
  8
FORMAT
100
AcDbMText
 10
38.6995593213
 20
180.4511074705
 30
0.0
 40
6.35
 41
0.0
 71
     1
 72
     1
  1
80
  7
SLDTEXTSTYLE0
 11
6.123233995736766E-17
 21
1.0
 31
0.0
 73
     1
 44
1.0
  0
ENDBLK
  5
114
330
112
100
AcDbEntity
  8
0
100
AcDbBlockEnd
  0
BLOCK
  5
11D
330
11C
100
AcDbEntity
  8
0
100
AcDbBlockBegin
  2
_D_12
 70
     0
 10
0.0
 20
0.0
 30
0.0
  3
_D_12
  1
_D_12
  0
INSERT
  5
11F
330
11C
100
AcDbEntity
  8
FORMAT
100
AcDbBlockReference
  2
_CLOSED
 10
38.6053267196
 20
149.3351245274
 30
0.05
 41
5.9944
 42
5.9944
 50
270.0
  0
INSERT
  5
120
330
11C
100
AcDbEntity
  8
FORMAT
100
AcDbBlockReference
  2
_CLOSED
 10
38.6053267196
 20
204.3351245274
 30
0.05
 41
5.9944
 42
5.9944
 50
90.0
  0
LINE
  5
121
330
11C
100
AcDbEntity
  8
FORMAT
100
AcDbLine
 10
239.6588723374
 20
149.3351245274
 30
0.0
 11
37.6147267196
 21
149.3351245274
 31
0.0
  0
LINE
  5
122
330
11C
100
AcDbEntity
  8
FORMAT
100
AcDbLine
 10
64.6588723374
 20
204.3351245274
 30
0.0
 11
37.6147267196
 21
204.3351245274
 31
0.0
  0
LINE
  5
123
330
11C
100
AcDbEntity
  8
FORMAT
100
AcDbLine
 10
38.6053267196
 20
149.3351245274
 30
0.0
 11
38.6053267196
 21
204.3351245274
 31
0.0
  0
MTEXT
  5
124
330
11C
100
AcDbEntity
  8
FORMAT
100
AcDbMText
 10
30.4197458735
 20
170.4361754998
 30
0.0
 40
6.35
 41
0.0
 71
     1
 72
     1
  1
110
  7
SLDTEXTSTYLE0
 11
6.123233995736766E-17
 21
1.0
 31
0.0
 73
     1
 44
1.0
  0
ENDBLK
  5
11E
330
11C
100
AcDbEntity
  8
0
100
AcDbBlockEnd
  0
BLOCK
  5
127
330
126
100
AcDbEntity
  8
0
100
AcDbBlockBegin
  2
_D_13
 70
     0
 10
0.0
 20
0.0
 30
0.0
  3
_D_13
  1
_D_13
  0
INSERT
  5
129
330
126
100
AcDbEntity
  8
FORMAT
100
AcDbBlockReference
  2
_CLOSED
 10
90.6494723374
 20
46.0068356891
 30
0.05
 41
5.9944
 42
5.9944
 50
180.0
  0
INSERT
  5
12A
330
126
100
AcDbEntity
  8
FORMAT
100
AcDbBlockReference
  2
_CLOSED
 10
65.6494723374
 20
46.0068356891
 30
0.05
 41
5.9944
 42
5.9944
 50
0.0
  0
LINE
  5
12B
330
126
100
AcDbEntity
  8
FORMAT
100
AcDbLine
 10
90.6494723374
 20
118.3445245274
 30
0.0
 11
90.6494723374
 21
45.0162356891
 31
0.0
  0
LINE
  5
12C
330
126
100
AcDbEntity
  8
FORMAT
100
AcDbLine
 10
65.6494723374
 20
53.3445245274
 30
0.0
 11
65.6494723374
 21
45.0162356891
 31
0.0
  0
LINE
  5
12D
330
126
100
AcDbEntity
  8
FORMAT
100
AcDbLine
 10
90.6494723374
 20
46.0068356891
 30
0.0
 11
102.6382723374
 21
46.0068356891
 31
0.0
  0
LINE
  5
12E
330
126
100
AcDbEntity
  8
FORMAT
100
AcDbLine
 10
90.6494723374
 20
46.0068356891
 30
0.0
 11
65.6494723374
 21
46.0068356891
 31
0.0
  0
LINE
  5
12F
330
126
100
AcDbEntity
  8
FORMAT
100
AcDbLine
 10
65.6494723374
 20
46.0068356891
 30
0.0
 11
53.6606723374
 21
46.0068356891
 31
0.0
  0
MTEXT
  5
130
330
126
100
AcDbEntity
  8
FORMAT
100
AcDbMText
 10
72.0451526627
 20
54.1924165351
 30
0.0
 40
6.35
 41
0.0
 71
     1
 72
     1
  1
50
  7
SLDTEXTSTYLE0
 73
     1
 44
1.0
  0
ENDBLK
  5
128
330
126
100
AcDbEntity
  8
0
100
AcDbBlockEnd
  0
BLOCK
  5
133
330
132
100
AcDbEntity
  8
0
100
AcDbBlockBegin
  2
_D_14
 70
     0
 10
0.0
 20
0.0
 30
0.0
  3
_D_14
  1
_D_14
  0
INSERT
  5
135
330
132
100
AcDbEntity
  8
FORMAT
100
AcDbBlockReference
  2
_CLOSED
 10
113.1494723374
 20
37.2340630838
 30
0.05
 41
5.9944
 42
5.9944
 50
0.0
  0
INSERT
  5
136
330
132
100
AcDbEntity
  8
FORMAT
100
AcDbBlockReference
  2
_CLOSED
 10
65.6494723374
 20
37.2340630838
 30
0.05
 41
5.9944
 42
5.9944
 50
180.0
  0
LINE
  5
137
330
132
100
AcDbEntity
  8
FORMAT
100
AcDbLine
 10
113.1494723374
 20
70.8445245274
 30
0.0
 11
113.1494723374
 21
36.2434630838
 31
0.0
  0
LINE
  5
138
330
132
100
AcDbEntity
  8
FORMAT
100
AcDbLine
 10
65.6494723374
 20
53.3445245274
 30
0.0
 11
65.6494723374
 21
36.2434630838
 31
0.0
  0
LINE
  5
139
330
132
100
AcDbEntity
  8
FORMAT
100
AcDbLine
 10
113.1494723374
 20
37.2340630838
 30
0.0
 11
65.6494723374
 21
37.2340630838
 31
0.0
  0
MTEXT
  5
13A
330
132
100
AcDbEntity
  8
FORMAT
100
AcDbMText
 10
84.8283356019
 20
45.4196439298
 30
0.0
 40
6.35
 41
0.0
 71
     1
 72
     1
  1
95
  7
SLDTEXTSTYLE0
 73
     1
 44
1.0
  0
ENDBLK
  5
134
330
132
100
AcDbEntity
  8
0
100
AcDbBlockEnd
  0
BLOCK
  5
13D
330
13C
100
AcDbEntity
  8
0
100
AcDbBlockBegin
  2
_D_15
 70
     0
 10
0.0
 20
0.0
 30
0.0
  3
_D_15
  1
_D_15
  0
INSERT
  5
13F
330
13C
100
AcDbEntity
  8
FORMAT
100
AcDbBlockReference
  2
_CLOSED
 10
118.1494723374
 20
29.4638930619
 30
0.05
 41
5.9944
 42
5.9944
 50
0.0
  0
INSERT
  5
140
330
13C
100
AcDbEntity
  8
FORMAT
100
AcDbBlockReference
  2
_CLOSED
 10
65.6494723374
 20
29.4638930619
 30
0.05
 41
5.9944
 42
5.9944
 50
180.0
  0
LINE
  5
141
330
13C
100
AcDbEntity
  8
FORMAT
100
AcDbLine
 10
118.1494723374
 20
105.8445245274
 30
0.0
 11
118.1494723374
 21
28.4732930619
 31
0.0
  0
LINE
  5
142
330
13C
100
AcDbEntity
  8
FORMAT
100
AcDbLine
 10
65.6494723374
 20
53.3445245274
 30
0.0
 11
65.6494723374
 21
28.4732930619
 31
0.0
  0
LINE
  5
143
330
13C
100
AcDbEntity
  8
FORMAT
100
AcDbLine
 10
118.1494723374
 20
29.4638930619
 30
0.0
 11
65.6494723374
 21
29.4638930619
 31
0.0
  0
MTEXT
  5
144
330
13C
100
AcDbEntity
  8
FORMAT
100
AcDbMText
 10
82.4823633731
 20
37.649473908
 30
0.0
 40
6.35
 41
0.0
 71
     1
 72
     1
  1
105
  7
SLDTEXTSTYLE0
 73
     1
 44
1.0
  0
ENDBLK
  5
13E
330
13C
100
AcDbEntity
  8
0
100
AcDbBlockEnd
  0
BLOCK
  5
147
330
146
100
AcDbEntity
  8
0
100
AcDbBlockBegin
  2
_D_16
 70
     0
 10
0.0
 20
0.0
 30
0.0
  3
_D_16
  1
_D_16
  0
INSERT
  5
149
330
146
100
AcDbEntity
  8
FORMAT
100
AcDbBlockReference
  2
_CLOSED
 10
133.1494723374
 20
21.4430723942
 30
0.05
 41
5.9944
 42
5.9944
 50
0.0
  0
INSERT
  5
14A
330
146
100
AcDbEntity
  8
FORMAT
100
AcDbBlockReference
  2
_CLOSED
 10
65.6494723374
 20
21.4430723942
 30
0.05
 41
5.9944
 42
5.9944
 50
180.0
  0
LINE
  5
14B
330
146
100
AcDbEntity
  8
FORMAT
100
AcDbLine
 10
133.1494723374
 20
105.8445245274
 30
0.0
 11
133.1494723374
 21
20.4524723942
 31
0.0
  0
LINE
  5
14C
330
146
100
AcDbEntity
  8
FORMAT
100
AcDbLine
 10
65.6494723374
 20
53.3445245274
 30
0.0
 11
65.6494723374
 21
20.4524723942
 31
0.0
  0
LINE
  5
14D
330
146
100
AcDbEntity
  8
FORMAT
100
AcDbLine
 10
133.1494723374
 20
21.4430723942
 30
0.0
 11
65.6494723374
 21
21.4430723942
 31
0.0
  0
MTEXT
  5
14E
330
146
100
AcDbEntity
  8
FORMAT
100
AcDbMText
 10
82.4823633731
 20
29.6286532403
 30
0.0
 40
6.35
 41
0.0
 71
     1
 72
     1
  1
135
  7
SLDTEXTSTYLE0
 73
     1
 44
1.0
  0
ENDBLK
  5
148
330
146
100
AcDbEntity
  8
0
100
AcDbBlockEnd
  0
BLOCK
  5
151
330
150
100
AcDbEntity
  8
0
100
AcDbBlockBegin
  2
_D_17
 70
     0
 10
0.0
 20
0.0
 30
0.0
  3
_D_17
  1
_D_17
  0
INSERT
  5
153
330
150
100
AcDbEntity
  8
FORMAT
100
AcDbBlockReference
  2
_CLOSED
 10
138.1494723374
 20
12.523234359
 30
0.05
 41
5.9944
 42
5.9944
 50
0.0
  0
INSERT
  5
154
330
150
100
AcDbEntity
  8
FORMAT
100
AcDbBlockReference
  2
_CLOSED
 10
65.6494723374
 20
12.523234359
 30
0.05
 41
5.9944
 42
5.9944
 50
180.0
  0
LINE
  5
155
330
150
100
AcDbEntity
  8
FORMAT
100
AcDbLine
 10
138.1494723374
 20
70.8445245274
 30
0.0
 11
138.1494723374
 21
11.532634359
 31
0.0
  0
LINE
  5
156
330
150
100
AcDbEntity
  8
FORMAT
100
AcDbLine
 10
65.6494723374
 20
53.3445245274
 30
0.0
 11
65.6494723374
 21
11.532634359
 31
0.0
  0
LINE
  5
157
330
150
100
AcDbEntity
  8
FORMAT
100
AcDbLine
 10
138.1494723374
 20
12.523234359
 30
0.0
 11
65.6494723374
 21
12.523234359
 31
0.0
  0
MTEXT
  5
158
330
150
100
AcDbEntity
  8
FORMAT
100
AcDbMText
 10
82.4823633731
 20
20.708815205
 30
0.0
 40
6.35
 41
0.0
 71
     1
 72
     1
  1
145
  7
SLDTEXTSTYLE0
 73
     1
 44
1.0
  0
ENDBLK
  5
152
330
150
100
AcDbEntity
  8
0
100
AcDbBlockEnd
  0
BLOCK
  5
15B
330
15A
100
AcDbEntity
  8
0
100
AcDbBlockBegin
  2
_D_18
 70
     0
 10
0.0
 20
0.0
 30
0.0
  3
_D_18
  1
_D_18
  0
INSERT
  5
15D
330
15A
100
AcDbEntity
  8
FORMAT
100
AcDbBlockReference
  2
_CLOSED
 10
240.6494723374
 20
46.0068356891
 30
0.05
 41
5.9944
 42
5.9944
 50
0.0
  0
INSERT
  5
15E
330
15A
100
AcDbEntity
  8
FORMAT
100
AcDbBlockReference
  2
_CLOSED
 10
265.6494723374
 20
46.0068356891
 30
0.05
 41
5.9944
 42
5.9944
 50
180.0
  0
LINE
  5
15F
330
15A
100
AcDbEntity
  8
FORMAT
100
AcDbLine
 10
240.6494723374
 20
178.3445245274
 30
0.0
 11
240.6494723374
 21
45.0162356891
 31
0.0
  0
LINE
  5
160
330
15A
100
AcDbEntity
  8
FORMAT
100
AcDbLine
 10
265.6494723374
 20
53.3445245274
 30
0.0
 11
265.6494723374
 21
45.0162356891
 31
0.0
  0
LINE
  5
161
330
15A
100
AcDbEntity
  8
FORMAT
100
AcDbLine
 10
240.6494723374
 20
46.0068356891
 30
0.0
 11
228.6606723374
 21
46.0068356891
 31
0.0
  0
LINE
  5
162
330
15A
100
AcDbEntity
  8
FORMAT
100
AcDbLine
 10
240.6494723374
 20
46.0068356891
 30
0.0
 11
265.6494723374
 21
46.0068356891
 31
0.0
  0
LINE
  5
163
330
15A
100
AcDbEntity
  8
FORMAT
100
AcDbLine
 10
265.6494723374
 20
46.0068356891
 30
0.0
 11
277.6382723374
 21
46.0068356891
 31
0.0
  0
MTEXT
  5
164
330
15A
100
AcDbEntity
  8
FORMAT
100
AcDbMText
 10
249.6691864486
 20
54.1924165351
 30
0.0
 40
6.35
 41
0.0
 71
     1
 72
     1
  1
50
  7
SLDTEXTSTYLE0
 73
     1
 44
1.0
  0
ENDBLK
  5
15C
330
15A
100
AcDbEntity
  8
0
100
AcDbBlockEnd
  0
BLOCK
  5
167
330
166
100
AcDbEntity
  8
0
100
AcDbBlockBegin
  2
_D_19
 70
     0
 10
0.0
 20
0.0
 30
0.0
  3
_D_19
  1
_D_19
  0
INSERT
  5
169
330
166
100
AcDbEntity
  8
FORMAT
100
AcDbBlockReference
  2
_CLOSED
 10
228.1494723374
 20
37.2340630838
 30
0.05
 41
5.9944
 42
5.9944
 50
180.0
  0
INSERT
  5
16A
330
166
100
AcDbEntity
  8
FORMAT
100
AcDbBlockReference
  2
_CLOSED
 10
265.6494723374
 20
37.2340630838
 30
0.05
 41
5.9944
 42
5.9944
 50
0.0
  0
LINE
  5
16B
330
166
100
AcDbEntity
  8
FORMAT
100
AcDbLine
 10
228.1494723374
 20
90.8445245274
 30
0.0
 11
228.1494723374
 21
36.2434630838
 31
0.0
  0
LINE
  5
16C
330
166
100
AcDbEntity
  8
FORMAT
100
AcDbLine
 10
265.6494723374
 20
53.3445245274
 30
0.0
 11
265.6494723374
 21
36.2434630838
 31
0.0
  0
LINE
  5
16D
330
166
100
AcDbEntity
  8
FORMAT
100
AcDbLine
 10
228.1494723374
 20
37.2340630838
 30
0.0
 11
265.6494723374
 21
37.2340630838
 31
0.0
  0
MTEXT
  5
16E
330
166
100
AcDbEntity
  8
FORMAT
100
AcDbMText
 10
242.5344904559
 20
45.4196439298
 30
0.0
 40
6.35
 41
0.0
 71
     1
 72
     1
  1
75
  7
SLDTEXTSTYLE0
 73
     1
 44
1.0
  0
ENDBLK
  5
168
330
166
100
AcDbEntity
  8
0
100
AcDbBlockEnd
  0
BLOCK
  5
171
330
170
100
AcDbEntity
  8
0
100
AcDbBlockBegin
  2
_D_20
 70
     0
 10
0.0
 20
0.0
 30
0.0
  3
_D_20
  1
_D_20
  0
INSERT
  5
173
330
170
100
AcDbEntity
  8
FORMAT
100
AcDbBlockReference
  2
_CLOSED
 10
200.6494723374
 20
29.4638930619
 30
0.05
 41
5.9944
 42
5.9944
 50
180.0
  0
INSERT
  5
174
330
170
100
AcDbEntity
  8
FORMAT
100
AcDbBlockReference
  2
_CLOSED
 10
265.6494723374
 20
29.4638930619
 30
0.05
 41
5.9944
 42
5.9944
 50
0.0
  0
LINE
  5
175
330
170
100
AcDbEntity
  8
FORMAT
100
AcDbLine
 10
200.6494723374
 20
133.3445245274
 30
0.0
 11
200.6494723374
 21
28.4732930619
 31
0.0
  0
LINE
  5
176
330
170
100
AcDbEntity
  8
FORMAT
100
AcDbLine
 10
265.6494723374
 20
53.3445245274
 30
0.0
 11
265.6494723374
 21
28.4732930619
 31
0.0
  0
LINE
  5
177
330
170
100
AcDbEntity
  8
FORMAT
100
AcDbLine
 10
200.6494723374
 20
29.4638930619
 30
0.0
 11
265.6494723374
 21
29.4638930619
 31
0.0
  0
MTEXT
  5
178
330
170
100
AcDbEntity
  8
FORMAT
100
AcDbMText
 10
227.5046142402
 20
37.649473908
 30
0.0
 40
6.35
 41
0.0
 71
     1
 72
     1
  1
130
  7
SLDTEXTSTYLE0
 73
     1
 44
1.0
  0
ENDBLK
  5
172
330
170
100
AcDbEntity
  8
0
100
AcDbBlockEnd
  0
BLOCK
  5
17B
330
17A
100
AcDbEntity
  8
0
100
AcDbBlockBegin
  2
_D_21
 70
     0
 10
0.0
 20
0.0
 30
0.0
  3
_D_21
  1
_D_21
  0
INSERT
  5
17D
330
17A
100
AcDbEntity
  8
FORMAT
100
AcDbBlockReference
  2
_CLOSED
 10
173.1494723374
 20
21.4430723942
 30
0.05
 41
5.9944
 42
5.9944
 50
180.0
  0
INSERT
  5
17E
330
17A
100
AcDbEntity
  8
FORMAT
100
AcDbBlockReference
  2
_CLOSED
 10
265.6494723374
 20
21.4430723942
 30
0.05
 41
5.9944
 42
5.9944
 50
0.0
  0
LINE
  5
17F
330
17A
100
AcDbEntity
  8
FORMAT
100
AcDbLine
 10
173.1494723374
 20
100.8445245274
 30
0.0
 11
173.1494723374
 21
20.4524723942
 31
0.0
  0
LINE
  5
180
330
17A
100
AcDbEntity
  8
FORMAT
100
AcDbLine
 10
265.6494723374
 20
53.3445245274
 30
0.0
 11
265.6494723374
 21
20.4524723942
 31
0.0
  0
LINE
  5
181
330
17A
100
AcDbEntity
  8
FORMAT
100
AcDbLine
 10
173.1494723374
 20
21.4430723942
 30
0.0
 11
265.6494723374
 21
21.4430723942
 31
0.0
  0
MTEXT
  5
182
330
17A
100
AcDbEntity
  8
FORMAT
100
AcDbMText
 10
214.8207102532
 20
29.6286532403
 30
0.0
 40
6.35
 41
0.0
 71
     1
 72
     1
  1
185
  7
SLDTEXTSTYLE0
 73
     1
 44
1.0
  0
ENDBLK
  5
17C
330
17A
100
AcDbEntity
  8
0
100
AcDbBlockEnd
  0
ENDSEC
  0
SECTION
  2
ENTITIES
  0
LINE
  5
70
330
1F
100
AcDbEntity
  8
0
  6
Continuous
 62
     7
370
     0
100
AcDbLine
 10
265.6494723374
 20
54.3351245274
 30
0.0
 11
265.6494723374
 21
204.3351245274
 31
0.0
  0
LINE
  5
71
330
1F
100
AcDbEntity
  8
0
  6
Continuous
 62
     7
370
     0
100
AcDbLine
 10
265.6494723374
 20
204.3351245274
 30
0.0
 11
65.6494723374
 21
204.3351245274
 31
0.0
  0
LINE
  5
72
330
1F
100
AcDbEntity
  8
0
  6
Continuous
 62
     7
370
     0
100
AcDbLine
 10
240.6494723374
 20
189.3351245274
 30
0.0
 11
98.8203987737
 21
189.3351245274
 31
0.0
  0
LINE
  5
73
330
1F
100
AcDbEntity
  8
0
  6
Continuous
 62
     7
370
     0
100
AcDbLine
 10
201.9303622956
 20
174.2527513058
 30
0.0
 11
239.3685823793
 21
169.417497749
 31
0.0
  0
LINE
  5
74
330
1F
100
AcDbEntity
  8
0
  6
Continuous
 62
     7
370
     0
100
AcDbLine
 10
239.3685823793
 20
159.2527513058
 30
0.0
 11
201.9303622956
 21
154.417497749
 31
0.0
  0
LINE
  5
75
330
1F
100
AcDbEntity
  8
0
  6
Continuous
 62
     7
370
     0
100
AcDbLine
 10
201.9303622956
 20
144.2527513058
 30
0.0
 11
239.3685823793
 21
139.417497749
 31
0.0
  0
LINE
  5
76
330
1F
100
AcDbEntity
  8
0
  6
Continuous
 62
     7
370
     0
100
AcDbLine
 10
234.7848304382
 20
113.3344738868
 30
0.0
 11
197.7004242927
 21
124.7798581455
 31
0.0
  0
LINE
  5
77
330
1F
100
AcDbEntity
  8
0
  6
Continuous
 62
     7
370
     0
100
AcDbLine
 10
193.3574421865
 20
111.7289586972
 30
0.0
 11
207.9415024884
 21
81.9412903576
 31
0.0
  0
LINE
  5
78
330
1F
100
AcDbEntity
  8
0
  6
Continuous
 62
     7
370
     0
100
AcDbLine
 10
201.0659137614
 20
74.3001958328
 30
0.0
 11
169.4014995214
 21
79.6494827794
 31
0.0
  0
LINE
  5
79
330
1F
100
AcDbEntity
  8
0
  6
Continuous
 62
     7
370
     0
100
AcDbLine
 10
138.1494723374
 20
69.3351245274
 30
0.0
 11
200.6494723374
 21
69.3351245274
 31
0.0
  0
LINE
  5
7A
330
1F
100
AcDbEntity
  8
0
  6
Continuous
 62
     7
370
     0
100
AcDbLine
 10
135.6494723374
 20
106.8351245274
 30
0.0
 11
135.6494723374
 21
71.8351245274
 31
0.0
  0
LINE
  5
7B
330
1F
100
AcDbEntity
  8
0
  6
Continuous
 62
     7
370
     0
100
AcDbLine
 10
118.1494723374
 20
109.3351245274
 30
0.0
 11
133.1494723374
 21
109.3351245274
 31
0.0
  0
LINE
  5
7C
330
1F
100
AcDbEntity
  8
0
  6
Continuous
 62
     7
370
     0
100
AcDbLine
 10
115.6494723374
 20
71.8351245274
 30
0.0
 11
115.6494723374
 21
106.8351245274
 31
0.0
  0
LINE
  5
7D
330
1F
100
AcDbEntity
  8
0
  6
Continuous
 62
     7
370
     0
100
AcDbLine
 10
90.6494723374
 20
69.3351245274
 30
0.0
 11
113.1494723374
 21
69.3351245274
 31
0.0
  0
LINE
  5
7E
330
1F
100
AcDbEntity
  8
0
  6
Continuous
 62
     7
370
     0
100
AcDbLine
 10
65.6494723374
 20
204.3351245274
 30
0.0
 11
65.6494723374
 21
54.3351245274
 31
0.0
  0
LINE
  5
7F
330
1F
100
AcDbEntity
  8
0
  6
Continuous
 62
     7
370
     0
100
AcDbLine
 10
65.6494723374
 20
54.3351245274
 30
0.0
 11
265.6494723374
 21
54.3351245274
 31
0.0
  0
ARC
  5
80
330
1F
100
AcDbEntity
  8
0
  6
Continuous
 62
     7
370
     0
100
AcDbCircle
 10
240.6494723374
 20
179.3351245274
 30
0.0
 40
10.00000000000003
100
AcDbArc
 50
262.6408233834
 51
90.0
  0
ARC
  5
81
330
1F
100
AcDbEntity
  8
0
  6
Continuous
 62
     7
370
     0
100
AcDbCircle
 10
200.6494723374
 20
164.3351245274
 30
0.0
 40
10.00000000000003
100
AcDbArc
 50
82.6408233834
 51
277.3591766166
  0
ARC
  5
82
330
1F
100
AcDbEntity
  8
0
  6
Continuous
 62
     7
370
     0
100
AcDbCircle
 10
240.6494723374
 20
149.3351245274
 30
0.0
 40
10.00000000000003
100
AcDbArc
 50
262.6408233834
 51
97.3591766166
  0
ARC
  5
83
330
1F
100
AcDbEntity
  8
0
  6
Continuous
 62
     7
370
     0
100
AcDbCircle
 10
200.6494723374
 20
134.3351245274
 30
0.0
 40
10.00000000000017
100
AcDbArc
 50
82.6408233834
 51
252.8481708788
  0
ARC
  5
84
330
1F
100
AcDbEntity
  8
0
  6
Continuous
 62
     7
370
     0
100
AcDbCircle
 10
228.1494723374
 20
91.8351245274
 30
0.0
 40
22.50000000000016
100
AcDbArc
 50
206.0863978153
 51
72.8481708788
  0
ARC
  5
85
330
1F
100
AcDbEntity
  8
0
  6
Continuous
 62
     7
370
     0
100
AcDbCircle
 10
173.1494723374
 20
101.8351245274
 30
0.0
 40
22.49999999999993
100
AcDbArc
 50
26.0863978153
 51
260.4111671405
  0
ARC
  5
86
330
1F
100
AcDbEntity
  8
0
  6
Continuous
 62
     7
370
     0
100
AcDbCircle
 10
200.6494723374
 20
71.8351245274
 30
0.0
 40
2.500000000000206
100
AcDbArc
 50
270.0
 51
80.4111671405
  0
ARC
  5
87
330
1F
100
AcDbEntity
  8
0
  6
Continuous
 62
     7
370
     0
100
AcDbCircle
 10
138.1494723374
 20
71.8351245274
 30
0.0
 40
2.499999999999943
100
AcDbArc
 50
180.0
 51
270.0
  0
ARC
  5
88
330
1F
100
AcDbEntity
  8
0
  6
Continuous
 62
     7
370
     0
100
AcDbCircle
 10
133.1494723374
 20
106.8351245274
 30
0.0
 40
2.500000000000171
100
AcDbArc
 50
0.0
 51
90.0
  0
ARC
  5
89
330
1F
100
AcDbEntity
  8
0
  6
Continuous
 62
     7
370
     0
100
AcDbCircle
 10
118.1494723374
 20
106.8351245274
 30
0.0
 40
2.499999999999943
100
AcDbArc
 50
90.0
 51
180.0
  0
ARC
  5
8A
330
1F
100
AcDbEntity
  8
0
  6
Continuous
 62
     7
370
     0
100
AcDbCircle
 10
113.1494723374
 20
71.8351245274
 30
0.0
 40
2.500000000000156
100
AcDbArc
 50
270.0
 51
0.0
  0
ARC
  5
8B
330
1F
100
AcDbEntity
  8
0
  6
Continuous
 62
     7
370
     0
100
AcDbCircle
 10
90.6494723374
 20
79.3351245274
 30
0.0
 40
10.00000000000001
100
AcDbArc
 50
90.0
 51
270.0
  0
ARC
  5
8C
330
1F
100
AcDbEntity
  8
0
  6
Continuous
 62
     7
370
     0
100
AcDbCircle
 10
90.6494723374
 20
99.3351245274
 30
0.0
 40
10.00000000000001
100
AcDbArc
 50
270.0
 51
90.0
  0
ARC
  5
8D
330
1F
100
AcDbEntity
  8
0
  6
Continuous
 62
     7
370
     0
100
AcDbCircle
 10
90.6494723374
 20
119.3351245274
 30
0.0
 40
10.00000000000014
100
AcDbArc
 50
60.0943055959
 51
270.0
  0
SPLINE
  5
8E
330
1F
100
AcDbEntity
  8
0
  6
Continuous
 62
     7
370
     0
100
AcDbSpline
210
0.0
220
0.0
230
1.0
 70
     8
 71
     3
 72
    19
 73
    15
 74
     0
 42
0.000000001
 43
0.00000001
 40
0.0
 40
0.0
 40
0.0
 40
0.0
 40
0.0856276067567998
 40
0.1040662281567531
 40
0.1754617711281135
 40
0.2131653005245987
 40
0.4433979927251201
 40
0.4858333504305533
 40
0.6087397910538652
 40
0.7219651307746874
 40
0.7481820636640549
 40
0.8572727803604872
 40
0.8838182079527871
 40
1.0
 40
1.0
 40
1.0
 40
1.0
 10
98.8203987736962
 20
189.3351245274252
 30
0.0
 10
90.52188100618875
 20
189.3351245274252
 30
0.0
 10
80.48249822031073
 20
182.6861720825982
 30
0.0
 10
80.68011849783075
 20
172.0078547915332
 30
0.0
 10
86.4656395938439
 20
166.9319430866473
 30
0.0
 10
117.2360585819676
 20
160.0900534149333
 30
0.0
 10
179.7574677855385
 20
191.5357416010067
 30
0.0
 10
185.1536873227888
 20
154.0655899576867
 30
0.0
 10
146.3537376660342
 20
153.0564595998932
 30
0.0
 10
124.7196895791507
 20
155.4969921529116
 30
0.0
 10
121.7196083440146
 20
137.8053568527754
 30
0.0
 10
155.6958534306008
 20
140.3308095587142
 30
0.0
 10
146.0663957555723
 20
110.7383439947672
 30
0.0
 10
102.8086220155104
 20
123.8777537003276
 30
0.0
 10
95.63521128523323
 20
128.0035965464438
 30
0.0
  0
DIMENSION
  5
8F
330
1F
100
AcDbEntity
  8
FORMAT
100
AcDbDimension
  2
_D
 10
63.8194686383
 20
54.3351245274
 30
0.0
 11
63.8194686383
 21
62.3392553038
 31
0.0
 70
   160
  1
<>
 71
     2
 42
-1.0
  3
SLDDIMSTYLE0
100
AcDbAlignedDimension
 13
90.6494723374
 23
69.3351245274
 33
0.0
 14
65.6494723374
 24
54.3351245274
 34
0.0
 50
90.0
100
AcDbRotatedDimension
  0
DIMENSION
  5
A4
330
1F
100
AcDbEntity
  8
FORMAT
100
AcDbDimension
  2
_D_1
 10
46.8851401673
 20
54.3351245274
 30
0.0
 11
46.8851401673
 21
68.1205212301
 31
0.0
 70
   160
  1
<>
 71
     2
 42
-1.0
  3
SLDDIMSTYLE0
100
AcDbAlignedDimension
 13
90.6494723374
 23
79.3351245274
 33
0.0
 14
65.6494723374
 24
54.3351245274
 34
0.0
 50
90.0
100
AcDbRotatedDimension
  0
DIMENSION
  5
B0
330
1F
100
AcDbEntity
  8
FORMAT
100
AcDbDimension
  2
_D_2
 10
30.4985723905
 20
54.3351245274
 30
0.0
 11
30.4985723905
 21
76.2558588973
 31
0.0
 70
   160
  1
<>
 71
     2
 42
-1.0
  3
SLDDIMSTYLE1
100
AcDbAlignedDimension
 13
90.6494723374
 23
99.3351245274
 33
0.0
 14
65.6494723374
 24
54.3351245274
 34
0.0
 50
90.0
100
AcDbRotatedDimension
  0
DIMENSION
  5
BB
330
1F
100
AcDbEntity
  8
FORMAT
100
AcDbDimension
  2
_D_3
 10
38.6053267196
 20
54.3351245274
 30
0.0
 11
38.6053267196
 21
74.0292688432
 31
0.0
 70
   160
  1
<>
 71
     2
 42
-1.0
  3
SLDDIMSTYLE1
100
AcDbAlignedDimension
 13
228.1494723374
 23
91.8351245274
 33
0.0
 14
65.6494723374
 24
54.3351245274
 34
0.0
 50
90.0
100
AcDbRotatedDimension
  0
DIMENSION
  5
C5
330
1F
100
AcDbEntity
  8
FORMAT
100
AcDbDimension
  2
_D_4
 10
21.9769439036
 20
54.3351245274
 30
0.0
 11
21.9769439036
 21
79.2102327038
 31
0.0
 70
   160
  1
<>
 71
     2
 42
-1.0
  3
SLDDIMSTYLE1
100
AcDbAlignedDimension
 13
173.1494723374
 23
101.8351245274
 33
0.0
 14
65.6494723374
 24
54.3351245274
 34
0.0
 50
90.0
100
AcDbRotatedDimension
  0
DIMENSION
  5
CF
330
1F
100
AcDbEntity
  8
FORMAT
100
AcDbDimension
  2
_D_5
 10
13.7898444098
 20
54.3351245274
 30
0.0
 11
13.7898444098
 21
82.1862259088
 31
0.0
 70
   160
  1
<>
 71
     2
 42
-1.0
  3
SLDDIMSTYLE1
100
AcDbAlignedDimension
 13
133.1494723374
 23
106.8351245274
 33
0.0
 14
65.6494723374
 24
54.3351245274
 34
0.0
 50
90.0
100
AcDbRotatedDimension
  0
DIMENSION
  5
D9
330
1F
100
AcDbEntity
  8
FORMAT
100
AcDbDimension
  2
_D_6
 10
13.7898444098
 20
54.3351245274
 30
0.0
 11
13.7898444098
 21
105.1498197399
 31
0.0
 70
   160
  1
<>
 71
     2
 42
-1.0
  3
SLDDIMSTYLE1
100
AcDbAlignedDimension
 13
90.6494723374
 23
119.3351245274
 33
0.0
 14
65.6494723374
 24
54.3351245274
 34
0.0
 50
90.0
100
AcDbRotatedDimension
  0
DIMENSION
  5
E3
330
1F
100
AcDbEntity
  8
FORMAT
100
AcDbDimension
  2
_D_7
 10
30.4985723905
 20
204.3351245274
 30
0.0
 11
30.4985723905
 21
168.7733032903
 31
0.0
 70
   160
  1
<>
 71
     2
 42
-1.0
  3
SLDDIMSTYLE1
100
AcDbAlignedDimension
 13
200.6494723374
 23
134.3351245274
 33
0.0
 14
65.6494723374
 24
204.3351245274
 34
0.0
 50
90.0
100
AcDbRotatedDimension
  0
DIMENSION
  5
ED
330
1F
100
AcDbEntity
  8
FORMAT
100
AcDbDimension
  2
_D_8
 10
55.8930156793
 20
54.3351245274
 30
0.0
 11
55.8930156793
 21
65.9825989552
 31
0.0
 70
   160
  1
<>
 71
     2
 42
-1.0
  3
SLDDIMSTYLE0
100
AcDbAlignedDimension
 13
200.6494723374
 23
71.8351245274
 33
0.0
 14
65.6494723374
 24
54.3351245274
 34
0.0
 50
90.0
100
AcDbRotatedDimension
  0
DIMENSION
  5
F9
330
1F
100
AcDbEntity
  8
FORMAT
100
AcDbDimension
  2
_D_9
 10
63.8194686383
 20
204.3351245274
 30
0.0
 11
63.8194686383
 21
197.7201459047
 31
0.0
 70
   160
  1
<>
 71
     2
 42
-1.0
  3
SLDDIMSTYLE0
100
AcDbAlignedDimension
 13
98.8203987737
 23
189.3351245274
 33
0.0
 14
65.6494723374
 24
204.3351245274
 34
0.0
 50
90.0
100
AcDbRotatedDimension
  0
DIMENSION
  5
105
330
1F
100
AcDbEntity
  8
FORMAT
100
AcDbDimension
  2
_D_10
 10
55.8930156793
 20
204.3351245274
 30
0.0
 11
55.8930156793
 21
192.8120116699
 31
0.0
 70
   160
  1
<>
 71
     2
 42
-1.0
  3
SLDDIMSTYLE0
100
AcDbAlignedDimension
 13
240.6494723374
 23
179.3351245274
 33
0.0
 14
65.6494723374
 24
204.3351245274
 34
0.0
 50
90.0
100
AcDbRotatedDimension
  0
DIMENSION
  5
111
330
1F
100
AcDbEntity
  8
FORMAT
100
AcDbDimension
  2
_D_11
 10
46.8851401673
 20
204.3351245274
 30
0.0
 11
46.8851401673
 21
185.1430519281
 31
0.0
 70
   160
  1
<>
 71
     2
 42
-1.0
  3
SLDDIMSTYLE1
100
AcDbAlignedDimension
 13
200.6494723374
 23
164.3351245274
 33
0.0
 14
65.6494723374
 24
204.3351245274
 34
0.0
 50
90.0
100
AcDbRotatedDimension
  0
DIMENSION
  5
11B
330
1F
100
AcDbEntity
  8
FORMAT
100
AcDbDimension
  2
_D_12
 10
38.6053267196
 20
204.3351245274
 30
0.0
 11
38.6053267196
 21
177.4740921862
 31
0.0
 70
   160
  1
<>
 71
     2
 42
-1.0
  3
SLDDIMSTYLE1
100
AcDbAlignedDimension
 13
240.6494723374
 23
149.3351245274
 33
0.0
 14
65.6494723374
 24
204.3351245274
 34
0.0
 50
90.0
100
AcDbRotatedDimension
  0
DIMENSION
  5
125
330
1F
100
AcDbEntity
  8
FORMAT
100
AcDbDimension
  2
_D_13
 10
65.6494723374
 20
46.0068356891
 30
0.0
 11
76.7370971203
 21
46.0068356891
 31
0.0
 70
   160
  1
<>
 71
     2
 42
-1.0
  3
SLDDIMSTYLE0
100
AcDbAlignedDimension
 13
90.6494723374
 23
119.3351245274
 33
0.0
 14
65.6494723374
 24
54.3351245274
 34
0.0
 50
0.0
100
AcDbRotatedDimension
  0
DIMENSION
  5
131
330
1F
100
AcDbEntity
  8
FORMAT
100
AcDbDimension
  2
_D_14
 10
65.6494723374
 20
37.2340630838
 30
0.0
 11
89.5202800594
 21
37.2340630838
 31
0.0
 70
   160
  1
<>
 71
     2
 42
-1.0
  3
SLDDIMSTYLE1
100
AcDbAlignedDimension
 13
113.1494723374
 23
71.8351245274
 33
0.0
 14
65.6494723374
 24
54.3351245274
 34
0.0
100
AcDbRotatedDimension
  0
DIMENSION
  5
13B
330
1F
100
AcDbEntity
  8
FORMAT
100
AcDbDimension
  2
_D_15
 10
65.6494723374
 20
29.4638930619
 30
0.0
 11
89.5202800594
 21
29.4638930619
 31
0.0
 70
   160
  1
<>
 71
     2
 42
-1.0
  3
SLDDIMSTYLE1
100
AcDbAlignedDimension
 13
118.1494723374
 23
106.8351245274
 33
0.0
 14
65.6494723374
 24
54.3351245274
 34
0.0
 50
0.0
100
AcDbRotatedDimension
  0
DIMENSION
  5
145
330
1F
100
AcDbEntity
  8
FORMAT
100
AcDbDimension
  2
_D_16
 10
65.6494723374
 20
21.4430723942
 30
0.0
 11
89.5202800594
 21
21.4430723942
 31
0.0
 70
   160
  1
<>
 71
     2
 42
-1.0
  3
SLDDIMSTYLE1
100
AcDbAlignedDimension
 13
133.1494723374
 23
106.8351245274
 33
0.0
 14
65.6494723374
 24
54.3351245274
 34
0.0
 50
0.0
100
AcDbRotatedDimension
  0
DIMENSION
  5
14F
330
1F
100
AcDbEntity
  8
FORMAT
100
AcDbDimension
  2
_D_17
 10
65.6494723374
 20
12.523234359
 30
0.0
 11
89.5202800594
 21
12.523234359
 31
0.0
 70
   160
  1
<>
 71
     2
 42
-1.0
  3
SLDDIMSTYLE1
100
AcDbAlignedDimension
 13
138.1494723374
 23
71.8351245274
 33
0.0
 14
65.6494723374
 24
54.3351245274
 34
0.0
100
AcDbRotatedDimension
  0
DIMENSION
  5
159
330
1F
100
AcDbEntity
  8
FORMAT
100
AcDbDimension
  2
_D_18
 10
265.6494723374
 20
46.0068356891
 30
0.0
 11
254.3611309062
 21
46.0068356891
 31
0.0
 70
   160
  1
<>
 71
     2
 42
-1.0
  3
SLDDIMSTYLE0
100
AcDbAlignedDimension
 13
240.6494723374
 23
179.3351245274
 33
0.0
 14
265.6494723374
 24
54.3351245274
 34
0.0
 50
0.0
100
AcDbRotatedDimension
  0
DIMENSION
  5
165
330
1F
100
AcDbEntity
  8
FORMAT
100
AcDbDimension
  2
_D_19
 10
265.6494723374
 20
37.2340630838
 30
0.0
 11
247.2264349135
 21
37.2340630838
 31
0.0
 70
   160
  1
<>
 71
     2
 42
-1.0
  3
SLDDIMSTYLE1
100
AcDbAlignedDimension
 13
228.1494723374
 23
91.8351245274
 33
0.0
 14
265.6494723374
 24
54.3351245274
 34
0.0
100
AcDbRotatedDimension
  0
DIMENSION
  5
16F
330
1F
100
AcDbEntity
  8
FORMAT
100
AcDbDimension
  2
_D_20
 10
265.6494723374
 20
29.4638930619
 30
0.0
 11
234.5425309265
 21
29.4638930619
 31
0.0
 70
   160
  1
<>
 71
     2
 42
-1.0
  3
SLDDIMSTYLE1
100
AcDbAlignedDimension
 13
200.6494723374
 23
134.3351245274
 33
0.0
 14
265.6494723374
 24
54.3351245274
 34
0.0
100
AcDbRotatedDimension
  0
DIMENSION
  5
179
330
1F
100
AcDbEntity
  8
FORMAT
100
AcDbDimension
  2
_D_21
 10
265.6494723374
 20
21.4430723942
 30
0.0
 11
221.8586269396
 21
21.4430723942
 31
0.0
 70
   160
  1
<>
 71
     2
 42
-1.0
  3
SLDDIMSTYLE1
100
AcDbAlignedDimension
 13
173.1494723374
 23
101.8351245274
 33
0.0
 14
265.6494723374
 24
54.3351245274
 34
0.0
 50
0.0
100
AcDbRotatedDimension
  0
ENDSEC
  0
SECTION
  2
OBJECTS
  0
DICTIONARY
  5
C
330
0
100
AcDbDictionary
281
     1
  3
ACAD_DETAILVIEWSTYLE
350
187
  3
ACAD_GROUP
350
D
  3
ACAD_LAYOUT
350
1A
  3
ACAD_MATERIAL
350
43
  3
ACAD_MLEADERSTYLE
350
186
  3
ACAD_MLINESTYLE
350
17
  3
ACAD_PLOTSETTINGS
350
19
  3
ACAD_PLOTSTYLENAME
350
E
  3
ACAD_SCALELIST
350
47
  3
ACAD_SECTIONVIEWSTYLE
350
188
  3
ACAD_TABLESTYLE
350
185
  3
AcDbVariableDictionary
350
183
  0
DICTIONARY
  5
187
102
{ACAD_REACTORS
330
C
102
}
330
C
100
AcDbDictionary
281
     1
  0
DICTIONARY
  5
D
102
{ACAD_REACTORS
330
C
102
}
330
C
100
AcDbDictionary
281
     1
  0
DICTIONARY
  5
1A
102
{ACAD_REACTORS
330
C
102
}
330
C
100
AcDbDictionary
281
     1
  3
Layout1
350
1E
  3
Layout2
350
26
  3
Model
350
22
  0
DICTIONARY
  5
43
102
{ACAD_REACTORS
330
C
102
}
330
C
100
AcDbDictionary
281
     1
  3
ByBlock
350
45
  3
ByLayer
350
44
  3
Global
350
46
  0
DICTIONARY
  5
186
102
{ACAD_REACTORS
330
C
102
}
330
C
100
AcDbDictionary
281
     1
  0
DICTIONARY
  5
17
102
{ACAD_REACTORS
330
C
102
}
330
C
100
AcDbDictionary
281
     1
  3
Standard
350
18
  0
DICTIONARY
  5
19
102
{ACAD_REACTORS
330
C
102
}
330
C
100
AcDbDictionary
281
     1
  0
ACDBDICTIONARYWDFLT
  5
E
102
{ACAD_REACTORS
330
C
102
}
330
C
100
AcDbDictionary
281
     1
  3
Normal
350
F
100
AcDbDictionaryWithDefault
340
F
  0
DICTIONARY
  5
47
102
{ACAD_REACTORS
330
C
102
}
330
C
100
AcDbDictionary
281
     1
  3
A0
350
48
  3
A1
350
49
  3
A2
350
4A
  3
A3
350
4B
  3
A4
350
4C
  3
A5
350
4D
  3
A6
350
4E
  3
A7
350
4F
  3
A8
350
50
  3
A9
350
51
  3
B0
350
52
  3
B1
350
53
  3
B2
350
54
  3
B3
350
55
  3
B4
350
56
  3
B5
350
57
  3
B6
350
58
  3
B7
350
59
  3
B8
350
5A
  3
B9
350
5B
  3
C0
350
5C
  3
C1
350
5D
  3
C2
350
5E
  3
C3
350
5F
  3
C4
350
60
  3
C5
350
61
  3
C6
350
62
  3
C7
350
63
  3
C8
350
64
  3
C9
350
65
  3
D0
350
66
  3
D1
350
67
  3
D2
350
68
  0
DICTIONARY
  5
188
102
{ACAD_REACTORS
330
C
102
}
330
C
100
AcDbDictionary
281
     1
  0
DICTIONARY
  5
185
102
{ACAD_REACTORS
330
C
102
}
330
C
100
AcDbDictionary
281
     1
  0
DICTIONARY
  5
183
102
{ACAD_REACTORS
330
C
102
}
330
C
100
AcDbDictionary
281
     1
  3
CANNOSCALE
350
184
  0
LAYOUT
  5
1E
102
{ACAD_REACTORS
330
1A
102
}
330
1A
100
AcDbPlotSettings
  1

  2
none_device
  4

  6

 40
0.0
 41
0.0
 42
0.0
 43
0.0
 44
0.0
 45
0.0
 46
0.0
 47
0.0
 48
0.0
 49
0.0
140
0.0
141
0.0
142
1.0
143
1.0
 70
   688
 72
     1
 73
     0
 74
     5
  7

 75
    16
 76
     0
 77
     2
 78
   300
147
1.0
148
0.0
149
0.0
100
AcDbLayout
  1
Layout1
 70
     1
 71
     1
 10
0.0
 20
0.0
 11
420.0
 21
297.0
 12
0.0
 22
0.0
 32
0.0
 14
1.0000000000E+20
 24
1.0000000000E+20
 34
1.0000000000E+20
 15
-1.0000000000E+20
 25
-1.0000000000E+20
 35
-1.0000000000E+20
146
0.0
 13
0.0
 23
0.0
 33
0.0
 16
1.0
 26
0.0
 36
0.0
 17
0.0
 27
1.0
 37
0.0
 76
     0
330
1B
  0
LAYOUT
  5
26
102
{ACAD_REACTORS
330
1A
102
}
330
1A
100
AcDbPlotSettings
  1

  2
none_device
  4

  6

 40
0.0
 41
0.0
 42
0.0
 43
0.0
 44
0.0
 45
0.0
 46
0.0
 47
0.0
 48
0.0
 49
0.0
140
0.0
141
0.0
142
1.0
143
1.0
 70
   688
 72
     1
 73
     0
 74
     5
  7

 75
    16
 76
     0
 77
     2
 78
   300
147
1.0
148
0.0
149
0.0
100
AcDbLayout
  1
Layout2
 70
     1
 71
     2
 10
0.0
 20
0.0
 11
0.0
 21
0.0
 12
0.0
 22
0.0
 32
0.0
 14
0.0
 24
0.0
 34
0.0
 15
0.0
 25
0.0
 35
0.0
146
0.0
 13
0.0
 23
0.0
 33
0.0
 16
1.0
 26
0.0
 36
0.0
 17
0.0
 27
1.0
 37
0.0
 76
     0
330
23
  0
LAYOUT
  5
22
102
{ACAD_REACTORS
330
1A
102
}
330
1A
100
AcDbPlotSettings
  1

  2
none_device
  4
Letter_(8.50_x_11.00_Inches)
  6

 40
6.35
 41
6.35
 42
6.35000508
 43
6.35000508
 44
215.9
 45
279.4
 46
0.0
 47
0.0
 48
0.0
 49
0.0
140
0.0
141
0.0
142
1.0
143
1.0
 70
  1712
 72
     1
 73
     0
 74
     0
  7

 75
     0
 76
     0
 77
     2
 78
   300
147
1.0
148
0.0
149
0.0
100
AcDbLayout
  1
Model
 70
     1
 71
     0
 10
0.0
 20
0.0
 11
279.4
 21
215.9
 12
0.0
 22
0.0
 32
0.0
 14
0.0
 24
0.0
 34
0.0
 15
279.4
 25
215.9
 35
0.0
146
0.0
 13
0.0
 23
0.0
 33
0.0
 16
1.0
 26
0.0
 36
0.0
 17
0.0
 27
1.0
 37
0.0
 76
     0
330
1F
331
29
  0
MATERIAL
  5
45
102
{ACAD_REACTORS
330
43
102
}
330
43
100
AcDbMaterial
  1
ByBlock
  0
MATERIAL
  5
44
102
{ACAD_REACTORS
330
43
102
}
330
43
100
AcDbMaterial
  1
ByLayer
  0
MATERIAL
  5
46
102
{ACAD_REACTORS
330
43
102
}
330
43
100
AcDbMaterial
  1
Global
  0
MLINESTYLE
  5
18
102
{ACAD_REACTORS
330
17
102
}
330
17
100
AcDbMlineStyle
  2
Standard
 70
     0
  3

 62
   256
 51
90.0
 52
90.0
 71
     2
 49
0.5
 62
   256
  6
BYLAYER
 49
-0.5
 62
   256
  6
BYLAYER
  0
ACDBPLACEHOLDER
  5
F
102
{ACAD_REACTORS
330
E
102
}
330
E
  0
SCALE
  5
48
102
{ACAD_REACTORS
330
47
102
}
330
47
100
AcDbScale
 70
     0
300
1:1
140
1.0
141
1.0
290
     1
  0
SCALE
  5
49
102
{ACAD_REACTORS
330
47
102
}
330
47
100
AcDbScale
 70
     0
300
1:2
140
1.0
141
2.0
290
     0
  0
SCALE
  5
4A
102
{ACAD_REACTORS
330
47
102
}
330
47
100
AcDbScale
 70
     0
300
1:4
140
1.0
141
4.0
290
     0
  0
SCALE
  5
4B
102
{ACAD_REACTORS
330
47
102
}
330
47
100
AcDbScale
 70
     0
300
1:5
140
1.0
141
5.0
290
     0
  0
SCALE
  5
4C
102
{ACAD_REACTORS
330
47
102
}
330
47
100
AcDbScale
 70
     0
300
1:8
140
1.0
141
8.0
290
     0
  0
SCALE
  5
4D
102
{ACAD_REACTORS
330
47
102
}
330
47
100
AcDbScale
 70
     0
300
1:10
140
1.0
141
10.0
290
     0
  0
SCALE
  5
4E
102
{ACAD_REACTORS
330
47
102
}
330
47
100
AcDbScale
 70
     0
300
1:16
140
1.0
141
16.0
290
     0
  0
SCALE
  5
4F
102
{ACAD_REACTORS
330
47
102
}
330
47
100
AcDbScale
 70
     0
300
1:20
140
1.0
141
20.0
290
     0
  0
SCALE
  5
50
102
{ACAD_REACTORS
330
47
102
}
330
47
100
AcDbScale
 70
     0
300
1:30
140
1.0
141
30.0
290
     0
  0
SCALE
  5
51
102
{ACAD_REACTORS
330
47
102
}
330
47
100
AcDbScale
 70
     0
300
1:40
140
1.0
141
40.0
290
     0
  0
SCALE
  5
52
102
{ACAD_REACTORS
330
47
102
}
330
47
100
AcDbScale
 70
     0
300
1:50
140
1.0
141
50.0
290
     0
  0
SCALE
  5
53
102
{ACAD_REACTORS
330
47
102
}
330
47
100
AcDbScale
 70
     0
300
1:100
140
1.0
141
100.0
290
     0
  0
SCALE
  5
54
102
{ACAD_REACTORS
330
47
102
}
330
47
100
AcDbScale
 70
     0
300
2:1
140
2.0
141
1.0
290
     0
  0
SCALE
  5
55
102
{ACAD_REACTORS
330
47
102
}
330
47
100
AcDbScale
 70
     0
300
4:1
140
4.0
141
1.0
290
     0
  0
SCALE
  5
56
102
{ACAD_REACTORS
330
47
102
}
330
47
100
AcDbScale
 70
     0
300
8:1
140
8.0
141
1.0
290
     0
  0
SCALE
  5
57
102
{ACAD_REACTORS
330
47
102
}
330
47
100
AcDbScale
 70
     0
300
10:1
140
10.0
141
1.0
290
     0
  0
SCALE
  5
58
102
{ACAD_REACTORS
330
47
102
}
330
47
100
AcDbScale
 70
     0
300
100:1
140
100.0
141
1.0
290
     0
  0
SCALE
  5
59
102
{ACAD_REACTORS
330
47
102
}
330
47
100
AcDbScale
 70
     0
300
1/128" = 1'-0"
140
0.0078125
141
12.0
290
     0
  0
SCALE
  5
5A
102
{ACAD_REACTORS
330
47
102
}
330
47
100
AcDbScale
 70
     0
300
1/64" = 1'-0"
140
0.015625
141
12.0
290
     0
  0
SCALE
  5
5B
102
{ACAD_REACTORS
330
47
102
}
330
47
100
AcDbScale
 70
     0
300
1/32" = 1'-0"
140
0.03125
141
12.0
290
     0
  0
SCALE
  5
5C
102
{ACAD_REACTORS
330
47
102
}
330
47
100
AcDbScale
 70
     0
300
1/16" = 1'-0"
140
0.0625
141
12.0
290
     0
  0
SCALE
  5
5D
102
{ACAD_REACTORS
330
47
102
}
330
47
100
AcDbScale
 70
     0
300
3/32" = 1'-0"
140
0.09375
141
12.0
290
     0
  0
SCALE
  5
5E
102
{ACAD_REACTORS
330
47
102
}
330
47
100
AcDbScale
 70
     0
300
1/8" = 1'-0"
140
0.125
141
12.0
290
     0
  0
SCALE
  5
5F
102
{ACAD_REACTORS
330
47
102
}
330
47
100
AcDbScale
 70
     0
300
3/16" = 1'-0"
140
0.1875
141
12.0
290
     0
  0
SCALE
  5
60
102
{ACAD_REACTORS
330
47
102
}
330
47
100
AcDbScale
 70
     0
300
1/4" = 1'-0"
140
0.25
141
12.0
290
     0
  0
SCALE
  5
61
102
{ACAD_REACTORS
330
47
102
}
330
47
100
AcDbScale
 70
     0
300
3/8" = 1'-0"
140
0.375
141
12.0
290
     0
  0
SCALE
  5
62
102
{ACAD_REACTORS
330
47
102
}
330
47
100
AcDbScale
 70
     0
300
1/2" = 1'-0"
140
0.5
141
12.0
290
     0
  0
SCALE
  5
63
102
{ACAD_REACTORS
330
47
102
}
330
47
100
AcDbScale
 70
     0
300
3/4" = 1'-0"
140
0.75
141
12.0
290
     0
  0
SCALE
  5
64
102
{ACAD_REACTORS
330
47
102
}
330
47
100
AcDbScale
 70
     0
300
1" = 1'-0"
140
1.0
141
12.0
290
     0
  0
SCALE
  5
65
102
{ACAD_REACTORS
330
47
102
}
330
47
100
AcDbScale
 70
     0
300
1-1/2" = 1'-0"
140
1.5
141
12.0
290
     0
  0
SCALE
  5
66
102
{ACAD_REACTORS
330
47
102
}
330
47
100
AcDbScale
 70
     0
300
3" = 1'-0"
140
3.0
141
12.0
290
     0
  0
SCALE
  5
67
102
{ACAD_REACTORS
330
47
102
}
330
47
100
AcDbScale
 70
     0
300
6" = 1'-0"
140
6.0
141
12.0
290
     0
  0
SCALE
  5
68
102
{ACAD_REACTORS
330
47
102
}
330
47
100
AcDbScale
 70
     0
300
1'-0" = 1'-0"
140
12.0
141
12.0
290
     0
  0
DICTIONARYVAR
  5
184
102
{ACAD_REACTORS
330
183
102
}
330
183
100
DictionaryVariables
280
     0
  1
1:1
  0
ENDSEC
  0
EOF
